<svg width="1440" height="602" viewBox="0 0 1440 602" fill="none" xmlns="http://www.w3.org/2000/svg">
<g clip-path="url(#clip0_2_2399)">
<rect width="1440" height="602" fill="#F9F9F9"/>
<g opacity="0.15">
<path d="M888.446 -111.954C925.046 -113.084 959.878 -93.3441 980.075 -66.32C1000.27 -39.2845 1007.42 -5.99247 1007.33 26.409C1007.24 58.8105 1000.4 90.8581 994.774 122.871C990.928 144.769 987.637 167.192 992.219 188.976C997.962 216.308 1016.52 241.346 1042.55 256.919C1085 282.31 1140.05 280.917 1191.23 283.007C1253.62 285.553 1321.5 297.518 1360.99 340.309C1400.1 382.666 1401.71 445.242 1441.65 486.972C1465.28 511.655 1501.47 526.554 1538.04 526.646" stroke="url(#paint0_linear_2_2399)" stroke-width="2" stroke-miterlimit="10"/>
<path d="M875.488 -104.955C891.463 -105.982 907.734 -101.931 921.063 -94.8664C925.901 -92.2987 930.301 -89.3429 934.482 -86.1932C945.192 -78.1248 954.185 -68.0364 961.14 -56.7612C971.192 -40.3961 977.876 -22.0682 983.695 -3.51199C987.657 9.10987 990.018 21.9258 990.973 35.0155C991.321 39.82 991.463 44.6816 991.399 49.6345C991.024 74.2962 984.895 98.9009 979.527 122.889C978.844 125.902 978.16 128.915 977.502 131.939C972.702 153.805 968.598 176.412 972.895 198.586C976.327 216.412 985.373 233.405 998.663 247.122C1006.24 254.928 1015.09 261.65 1024.93 267.071C1054.68 283.516 1090.39 287.384 1125.88 289.655C1143.03 290.762 1160.38 291.413 1177.19 292.668C1193.95 293.912 1210.9 296.035 1227.23 299.504C1263.41 307.093 1296.2 320.286 1322.69 341.912C1329.4 347.39 1335.7 353.324 1341.53 359.738C1362.95 383.361 1375.9 410.168 1389.81 435.628C1401.57 457.175 1413.66 478.892 1433.41 496.786C1458.85 519.839 1495.83 534.412 1532.86 535.827" stroke="url(#paint1_linear_2_2399)" stroke-width="2" stroke-miterlimit="10"/>
<path d="M862.531 -98.693C878.568 -100.258 895.509 -95.6206 907.959 -87.7741C912.488 -84.9074 916.294 -81.6751 919.932 -78.3401C929.17 -69.8654 936.525 -59.4606 942.215 -47.8907C950.42 -31.067 956.368 -12.5187 964.019 5.8126C969.077 17.9535 972.689 30.1515 974.638 43.0349C975.347 47.7633 975.799 52.606 975.954 57.6314C976.676 82.5985 969.116 107.657 962.664 131.471C961.852 134.474 961.026 137.49 960.226 140.516C954.484 162.388 949.569 185.197 953.568 207.777C956.781 226.04 965.993 243.56 979.889 257.288C987.811 265.112 997.062 271.679 1007.31 276.876C1038.1 292.626 1075.07 295.436 1110.91 297.96C1128.38 299.205 1146.11 300.199 1163.15 302.026C1180.16 303.853 1197.14 306.789 1213.16 311.3C1248.51 321.248 1278.32 337.078 1303.6 360.241C1310.08 366.18 1316.25 372.416 1322.08 378.949C1343.78 403.322 1359.47 428.118 1376.11 450.904C1390.06 469.989 1404.02 489.919 1425.17 506.56C1452.42 527.998 1490.18 542.286 1527.68 545.004" stroke="url(#paint2_linear_2_2399)" stroke-width="2" stroke-miterlimit="10"/>
<path d="M849.574 -91.6441C865.661 -93.7561 883.27 -88.5274 894.868 -79.908C899.086 -76.7571 902.312 -73.2408 905.395 -69.7246C913.135 -60.8883 918.876 -50.1454 923.301 -38.2952C929.661 -21.0336 934.821 -2.29929 944.354 15.7957C950.482 27.429 955.359 39.0053 958.3 51.6661C959.371 56.3125 960.132 61.1303 960.519 66.222C962.338 91.4636 953.295 116.934 945.825 140.554C944.871 143.557 943.916 146.571 942.974 149.596C936.292 171.436 930.551 194.428 934.266 217.387C937.246 236.064 946.638 254.079 961.138 267.824C969.42 275.667 979.07 282.06 989.7 287.027C1021.54 302.051 1059.76 303.809 1095.96 306.571C1113.75 307.953 1131.85 309.289 1149.13 311.686C1166.37 314.084 1183.39 317.828 1199.09 323.388C1233.62 335.638 1260.42 354.144 1284.5 378.803C1290.75 385.196 1296.77 391.726 1302.62 398.359C1324.59 423.453 1342.93 446.171 1362.41 466.276C1378.48 482.864 1394.38 500.981 1416.93 516.371C1445.98 536.178 1484.55 550.14 1522.49 554.182" stroke="url(#paint3_linear_2_2399)" stroke-width="2" stroke-miterlimit="10"/>
<path d="M836.616 -84.5885C852.773 -87.2358 871.086 -81.4164 881.818 -72.0367C885.719 -68.6021 888.366 -64.8251 890.91 -61.1052C897.187 -51.931 901.32 -40.8398 904.458 -28.6987C909.03 -11.0121 913.292 7.90693 924.786 25.7762C931.941 36.913 938.14 47.8559 942.079 60.2936C943.513 64.8579 944.585 69.6505 945.205 74.8081C948.123 100.323 937.585 126.202 929.074 149.628C927.989 152.618 926.878 155.63 925.807 158.666C918.161 180.472 911.6 203.658 915.035 226.993C917.786 246.083 927.382 264.603 942.493 278.353C951.133 286.204 961.206 292.4 972.248 297.169C1005.21 311.41 1044.69 312.186 1081.3 315.187C1099.45 316.704 1117.92 318.382 1135.45 321.349C1152.97 324.327 1170.04 328.845 1185.45 335.486C1219.21 350.024 1243.02 371.248 1265.95 397.356C1271.96 404.213 1277.85 411.026 1283.72 417.769C1306 443.58 1326.92 464.222 1349.35 481.658C1367.48 495.75 1385.42 512.068 1409.4 526.183C1440.3 544.36 1479.71 557.996 1518.17 563.359" stroke="url(#paint4_linear_2_2399)" stroke-width="2" stroke-miterlimit="10"/>
<path d="M823.66 -78.2892C839.866 -81.4752 858.862 -75.069 868.728 -64.8943C872.318 -61.1716 874.384 -57.1291 876.372 -53.2123C881.176 -43.7113 883.668 -32.2234 885.528 -19.7877C888.253 -1.64228 891.61 17.4966 905.105 35.1396C913.253 45.7939 920.795 56.117 925.728 68.3472C927.522 72.8236 928.917 77.6083 929.744 82.8384C933.76 108.658 921.724 134.979 912.207 158.241C910.98 161.232 909.741 164.236 908.527 167.273C899.939 189.084 892.553 212.471 895.704 236.212C898.235 255.739 907.997 274.776 923.726 288.559C932.727 296.427 943.186 302.468 954.628 307.012C988.642 320.544 1029.37 320.27 1066.34 323.513C1084.81 325.169 1103.65 327.179 1121.42 330.731C1139.16 334.282 1156.28 339.603 1171.37 347.311C1204.3 364.144 1225.07 388.124 1246.85 415.725C1252.62 423.056 1258.39 430.159 1264.25 437.022C1286.81 463.584 1310.2 482.22 1335.65 496.951C1355.76 508.588 1375.79 523.102 1401.16 535.96C1433.86 552.518 1474.07 565.856 1512.99 572.536" stroke="url(#paint5_linear_2_2399)" stroke-width="2" stroke-miterlimit="10"/>
<path d="M810.701 -71.9856C826.957 -75.7109 846.621 -68.7059 855.62 -57.7586C858.9 -53.7476 860.397 -49.4509 861.818 -45.3143C865.175 -35.4982 866.001 -23.6024 866.595 -10.8724C867.473 7.73125 869.874 27.112 885.433 44.5157C894.536 54.7089 903.47 64.3764 909.397 76.4093C911.553 80.8088 913.257 85.5626 914.316 90.8763C919.442 116.999 905.898 143.762 895.362 166.856C894.006 169.839 892.612 172.856 891.269 175.895C881.727 197.699 873.541 221.296 876.382 245.442C878.68 265.405 888.622 284.969 904.955 298.773C914.303 306.669 925.162 312.532 937.002 316.863C972.056 329.684 1014.04 328.358 1051.37 331.844C1070.16 333.638 1089.37 335.992 1107.38 340.117C1125.37 344.242 1142.53 350.356 1157.3 359.144C1189.42 378.261 1207.14 405.036 1227.76 434.107C1233.3 441.911 1238.92 449.305 1244.8 456.276C1267.64 483.587 1293.42 500.271 1321.95 512.247C1343.96 521.491 1366.14 534.13 1392.92 545.728C1427.42 560.675 1468.43 573.714 1507.81 581.713" stroke="url(#paint6_linear_2_2399)" stroke-width="2" stroke-miterlimit="10"/>
<path d="M797.744 -64.9085C814.03 -69.1689 834.351 -61.5847 842.462 -49.8658C845.414 -45.5597 846.356 -41.0252 847.194 -36.6734C849.141 -26.565 848.251 -14.2521 847.594 -1.25395C846.627 17.7865 848.032 37.4094 865.659 54.5195C875.677 64.251 886.006 73.2515 892.917 85.0618C895.432 89.3793 897.443 94.108 898.72 99.4878C904.935 125.884 889.913 153.045 878.385 175.958C876.89 178.939 875.368 181.943 873.898 184.981C863.428 206.751 854.428 230.532 856.981 255.066C859.044 275.432 869.153 295.5 886.07 309.309C895.754 317.213 907.011 322.913 919.222 327.013C955.274 339.12 998.47 336.733 1036.11 340.468C1055.19 342.399 1074.75 345.094 1092.97 349.789C1111.18 354.494 1128.37 361.382 1142.78 371.239C1174.05 392.621 1188.67 422.158 1208.14 452.666C1213.42 460.936 1218.94 468.611 1224.8 475.693C1247.9 503.734 1276.02 518.514 1307.61 527.628C1331.49 534.527 1355.82 545.218 1383.96 555.555C1420.23 568.862 1461.97 581.586 1501.76 590.895" stroke="url(#paint7_linear_2_2399)" stroke-width="2" stroke-miterlimit="10"/>
<path d="M784.786 -57.83C801.121 -62.6363 822.109 -54.4507 829.368 -41.9612C832.011 -37.3719 832.41 -32.5884 832.655 -28.0219C833.222 -17.633 830.605 -4.90373 828.684 8.3735C825.861 27.8498 826.261 47.76 845.999 64.5306C856.931 73.8235 868.676 82.1346 876.579 93.7222C879.454 97.9577 881.774 102.661 883.283 108.107C890.593 134.775 874.065 162.346 861.547 185.065C859.909 188.033 858.259 191.035 856.648 194.083C845.238 215.832 835.414 239.783 837.683 264.694C839.527 285.471 849.815 306.044 867.322 319.858C877.365 327.769 889.007 333.306 901.628 337.176C938.719 348.57 983.172 345.122 1021.17 349.095C1040.57 351.15 1060.5 354.198 1078.95 359.461C1097.4 364.735 1114.62 372.407 1128.72 383.344C1159.19 406.987 1170.71 439.296 1189.06 471.227C1194.09 479.972 1199.48 487.918 1205.36 495.099C1228.73 523.857 1259.23 536.814 1293.91 543.002C1319.68 547.603 1346.18 556.302 1375.71 565.366C1413.78 577.045 1456.32 589.444 1496.58 600.072" stroke="url(#paint8_linear_2_2399)" stroke-width="2" stroke-miterlimit="10"/>
<path d="M771.83 -51.5159C788.247 -56.8622 809.93 -48.0887 816.319 -34.8143C818.655 -29.9363 818.513 -24.8984 818.164 -20.1118C817.377 -9.40769 812.963 3.71828 809.814 17.3012C805.103 37.2243 804.496 57.4902 826.399 73.9062C838.26 82.7939 851.437 90.4022 860.356 101.78C863.595 105.927 866.228 110.622 867.971 116.14C876.386 143.112 858.329 171.111 844.791 193.674C843.009 196.644 841.215 199.637 839.473 202.698C827.096 224.438 816.448 248.599 818.435 273.926C820.049 295.14 830.529 316.228 848.675 330.074C859.078 338.002 871.12 343.405 884.168 347.027C922.32 357.777 968.112 353.207 1006.51 357.434C1026.26 359.627 1046.58 363.009 1065.29 368.858C1084 374.707 1101.3 383.16 1115.08 395.19C1144.79 421.11 1153.21 456.239 1170.47 489.63C1175.25 498.849 1180.53 507.086 1186.43 514.386C1210.1 543.893 1243.05 555.112 1280.84 558.322C1308.56 560.675 1337.23 567.347 1368.19 575.149C1408.11 585.202 1451.49 597.3 1492.26 609.249" stroke="url(#paint9_linear_2_2399)" stroke-width="2" stroke-miterlimit="10"/>
<path d="M758.872 -44.4379C775.326 -50.3184 797.691 -40.9553 803.215 -26.9106C805.228 -21.7494 804.582 -16.4513 803.615 -11.4728C801.485 -0.454001 795.304 13.054 790.877 26.916C784.321 47.2752 782.656 67.9083 806.712 83.917C819.475 92.4009 834.097 99.2862 843.995 110.442C847.596 114.507 850.538 119.177 852.5 124.761C862.011 152.017 842.434 180.403 827.915 202.783C825.992 205.741 824.069 208.744 822.185 211.792C808.867 233.499 797.394 257.843 799.098 283.546C800.492 305.172 811.138 326.765 829.89 340.615C840.653 348.563 853.093 353.781 866.528 357.184C905.734 367.22 952.773 361.602 991.528 366.056C1011.6 368.385 1032.28 372.107 1051.23 378.525C1070.19 384.953 1087.53 394.179 1100.99 407.276C1129.91 435.446 1135.19 473.355 1151.37 508.17C1155.88 517.864 1161.06 526.371 1166.96 533.781C1190.91 564.006 1226.34 572.33 1267.13 573.689C1296.79 574.682 1327.58 578.428 1359.95 584.959C1401.67 593.386 1445.84 605.158 1487.08 618.426" stroke="url(#paint10_linear_2_2399)" stroke-width="2" stroke-miterlimit="10"/>
<path d="M745.914 -37.3531C762.431 -43.767 785.463 -33.8266 790.121 -19.0129C791.824 -13.569 790.65 -8.01103 789.076 -2.82967C785.618 8.51457 777.656 22.3924 771.966 36.5328C763.566 57.3267 760.831 78.3603 787.05 93.9159C800.715 102.019 816.766 108.159 827.657 119.092C831.618 123.075 834.87 127.72 837.063 133.37C847.67 160.897 826.534 189.657 811.063 211.878C808.999 214.822 806.934 217.824 804.921 220.882C790.65 242.566 778.379 267.081 779.785 293.159C780.947 315.197 791.773 337.28 811.128 351.135C822.237 359.09 835.076 364.146 848.921 367.319C889.167 376.631 937.451 369.966 976.574 374.668C996.974 377.134 1018.02 381.197 1037.19 388.181C1056.39 395.177 1073.83 405.152 1086.92 419.361C1115.12 449.73 1117.18 490.462 1132.29 526.697C1136.54 536.866 1141.61 545.642 1147.52 553.152C1171.75 584.092 1209.62 591.909 1253.44 589.045C1285.1 586.968 1317.94 589.501 1351.71 594.774C1395.23 601.565 1440.2 613.034 1481.89 627.608" stroke="url(#paint11_linear_2_2399)" stroke-width="2" stroke-miterlimit="10"/>
<path d="M732.957 -31.0355C749.523 -37.9906 773.238 -27.4495 777.018 -11.8607C778.412 -6.1276 776.721 -0.291757 774.528 5.08726C769.754 16.7932 759.987 31.0345 753.046 45.4699C742.801 66.7119 739.008 88.2166 767.38 103.303C781.96 111.057 799.429 116.436 811.312 127.16C815.635 131.066 819.196 135.68 821.609 141.413C833.311 169.244 810.68 198.435 794.204 220.499C791.998 223.434 789.804 226.438 787.65 229.51C772.438 251.186 759.342 275.923 760.452 302.407C761.381 324.882 772.386 347.495 792.346 361.37C803.816 369.342 817.041 374.23 831.285 377.188C872.586 385.799 922.117 378.067 961.599 383.012C982.32 385.616 1003.74 390.024 1023.14 397.585C1042.59 405.156 1060.06 415.937 1072.83 431.218C1100.22 463.892 1099.05 507.449 1113.19 545.125C1117.14 555.78 1122.14 564.837 1128.05 572.466C1152.57 604.157 1192.96 610.313 1239.73 604.374C1273.41 600.103 1308.3 600.548 1343.47 604.557C1388.81 609.73 1434.56 620.888 1476.71 636.785" stroke="url(#paint12_linear_2_2399)" stroke-width="2" stroke-miterlimit="10"/>
<path d="M720 -24.7112C736.616 -32.2194 760.998 -21.0771 763.926 -4.70086C764.997 1.33311 762.804 7.43564 759.991 13.0125C744.898 42.8738 696.483 88.1857 747.736 112.699C768.854 122.79 796.293 127.704 806.201 149.462C818.998 177.598 794.861 207.231 777.381 229.127C758.495 252.783 740.228 280.93 741.183 311.637C741.892 334.538 753.077 357.68 773.627 371.588C819.617 402.695 893.059 384.353 946.674 391.347C988.793 396.832 1033.93 410.363 1058.79 443.07C1085.38 478.039 1081.13 524.391 1094.13 563.555C1113.3 621.312 1164.5 630.866 1226.05 619.701C1307.8 604.879 1395.85 615.369 1471.53 645.962" stroke="url(#paint13_linear_2_2399)" stroke-width="2" stroke-miterlimit="10"/>
<path d="M888.446 -111.954C925.046 -113.084 959.878 -93.3441 980.075 -66.32C1000.27 -39.2845 1007.42 -5.99247 1007.33 26.409C1007.24 58.8105 1000.4 90.8581 994.774 122.871C990.928 144.769 987.637 167.192 992.219 188.976C997.962 216.308 1016.52 241.346 1042.55 256.919C1085 282.31 1140.05 280.917 1191.23 283.007C1253.62 285.553 1321.5 297.518 1360.99 340.309C1400.1 382.666 1401.71 445.242 1441.65 486.972C1465.28 511.655 1501.47 526.554 1538.04 526.646" stroke="url(#paint14_linear_2_2399)" stroke-width="2" stroke-miterlimit="10"/>
<path d="M875.488 -104.955C891.463 -105.982 907.734 -101.931 921.063 -94.8664C925.901 -92.2987 930.301 -89.3429 934.482 -86.1932C945.192 -78.1248 954.185 -68.0364 961.14 -56.7612C971.192 -40.3961 977.876 -22.0682 983.695 -3.51199C987.657 9.10987 990.018 21.9258 990.973 35.0155C991.321 39.82 991.463 44.6816 991.399 49.6345C991.024 74.2962 984.895 98.9009 979.527 122.889C978.844 125.902 978.16 128.915 977.502 131.939C972.702 153.805 968.598 176.412 972.895 198.586C976.327 216.412 985.373 233.405 998.663 247.122C1006.24 254.928 1015.09 261.65 1024.93 267.071C1054.68 283.516 1090.39 287.384 1125.88 289.655C1143.03 290.762 1160.38 291.413 1177.19 292.668C1193.95 293.912 1210.9 296.035 1227.23 299.504C1263.41 307.093 1296.2 320.286 1322.69 341.912C1329.4 347.39 1335.7 353.324 1341.53 359.738C1362.95 383.361 1375.9 410.168 1389.81 435.628C1401.57 457.175 1413.66 478.892 1433.41 496.786C1458.85 519.839 1495.83 534.412 1532.86 535.827" stroke="url(#paint15_linear_2_2399)" stroke-width="2" stroke-miterlimit="10"/>
<path d="M862.531 -98.693C878.568 -100.258 895.509 -95.6206 907.959 -87.7741C912.488 -84.9074 916.294 -81.6751 919.932 -78.3401C929.17 -69.8654 936.525 -59.4606 942.215 -47.8907C950.42 -31.067 956.368 -12.5187 964.019 5.8126C969.077 17.9535 972.689 30.1515 974.638 43.0349C975.347 47.7633 975.799 52.606 975.954 57.6314C976.676 82.5985 969.116 107.657 962.664 131.471C961.852 134.474 961.026 137.49 960.226 140.516C954.484 162.388 949.569 185.197 953.568 207.777C956.781 226.04 965.993 243.56 979.889 257.288C987.811 265.112 997.062 271.679 1007.31 276.876C1038.1 292.626 1075.07 295.436 1110.91 297.96C1128.38 299.205 1146.11 300.199 1163.15 302.026C1180.16 303.853 1197.14 306.789 1213.16 311.3C1248.51 321.248 1278.32 337.078 1303.6 360.241C1310.08 366.18 1316.25 372.416 1322.08 378.949C1343.78 403.322 1359.47 428.118 1376.11 450.904C1390.06 469.989 1404.02 489.919 1425.17 506.56C1452.42 527.998 1490.18 542.286 1527.68 545.004" stroke="url(#paint16_linear_2_2399)" stroke-width="2" stroke-miterlimit="10"/>
<path d="M849.574 -91.6441C865.661 -93.7561 883.27 -88.5274 894.868 -79.908C899.086 -76.7571 902.312 -73.2408 905.395 -69.7246C913.135 -60.8883 918.876 -50.1454 923.301 -38.2952C929.661 -21.0336 934.821 -2.29929 944.354 15.7957C950.482 27.429 955.359 39.0053 958.3 51.6661C959.371 56.3125 960.132 61.1303 960.519 66.222C962.338 91.4636 953.295 116.934 945.825 140.554C944.871 143.557 943.916 146.571 942.974 149.596C936.292 171.436 930.551 194.428 934.266 217.387C937.246 236.064 946.638 254.079 961.138 267.824C969.42 275.667 979.07 282.06 989.7 287.027C1021.54 302.051 1059.76 303.809 1095.96 306.571C1113.75 307.953 1131.85 309.289 1149.13 311.686C1166.37 314.084 1183.39 317.828 1199.09 323.388C1233.62 335.638 1260.42 354.144 1284.5 378.803C1290.75 385.196 1296.77 391.726 1302.62 398.359C1324.59 423.453 1342.93 446.171 1362.41 466.276C1378.48 482.864 1394.38 500.981 1416.93 516.371C1445.98 536.178 1484.55 550.14 1522.49 554.182" stroke="url(#paint17_linear_2_2399)" stroke-width="2" stroke-miterlimit="10"/>
<path d="M836.616 -84.5885C852.773 -87.2358 871.086 -81.4164 881.818 -72.0367C885.719 -68.6021 888.366 -64.8251 890.91 -61.1052C897.187 -51.931 901.32 -40.8398 904.458 -28.6987C909.03 -11.0121 913.292 7.90693 924.786 25.7762C931.941 36.913 938.14 47.8559 942.079 60.2936C943.513 64.8579 944.585 69.6505 945.205 74.8081C948.123 100.323 937.585 126.202 929.074 149.628C927.989 152.618 926.878 155.63 925.807 158.666C918.161 180.472 911.6 203.658 915.035 226.993C917.786 246.083 927.382 264.603 942.493 278.353C951.133 286.204 961.206 292.4 972.248 297.169C1005.21 311.41 1044.69 312.186 1081.3 315.187C1099.45 316.704 1117.92 318.382 1135.45 321.349C1152.97 324.327 1170.04 328.845 1185.45 335.486C1219.21 350.024 1243.02 371.248 1265.95 397.356C1271.96 404.213 1277.85 411.026 1283.72 417.769C1306 443.58 1326.92 464.222 1349.35 481.658C1367.48 495.75 1385.42 512.068 1409.4 526.183C1440.3 544.36 1479.71 557.996 1518.17 563.359" stroke="url(#paint18_linear_2_2399)" stroke-width="2" stroke-miterlimit="10"/>
<path d="M823.66 -78.2892C839.866 -81.4752 858.862 -75.069 868.728 -64.8943C872.318 -61.1716 874.384 -57.1291 876.372 -53.2123C881.176 -43.7113 883.668 -32.2234 885.528 -19.7877C888.253 -1.64228 891.61 17.4966 905.105 35.1396C913.253 45.7939 920.795 56.117 925.728 68.3472C927.522 72.8236 928.917 77.6083 929.744 82.8384C933.76 108.658 921.724 134.979 912.207 158.241C910.98 161.232 909.741 164.236 908.527 167.273C899.939 189.084 892.553 212.471 895.704 236.212C898.235 255.739 907.997 274.776 923.726 288.559C932.727 296.427 943.186 302.468 954.628 307.012C988.642 320.544 1029.37 320.27 1066.34 323.513C1084.81 325.169 1103.65 327.179 1121.42 330.731C1139.16 334.282 1156.28 339.603 1171.37 347.311C1204.3 364.144 1225.07 388.124 1246.85 415.725C1252.62 423.056 1258.39 430.159 1264.25 437.022C1286.81 463.584 1310.2 482.22 1335.65 496.951C1355.76 508.588 1375.79 523.102 1401.16 535.96C1433.86 552.518 1474.07 565.856 1512.99 572.536" stroke="url(#paint19_linear_2_2399)" stroke-width="2" stroke-miterlimit="10"/>
<path d="M810.701 -71.9856C826.957 -75.7109 846.621 -68.7059 855.62 -57.7586C858.9 -53.7476 860.397 -49.4509 861.818 -45.3143C865.175 -35.4982 866.001 -23.6024 866.595 -10.8724C867.473 7.73125 869.874 27.112 885.433 44.5157C894.536 54.7089 903.47 64.3764 909.397 76.4093C911.553 80.8088 913.257 85.5626 914.316 90.8763C919.442 116.999 905.898 143.762 895.362 166.856C894.006 169.839 892.612 172.856 891.269 175.895C881.727 197.699 873.541 221.296 876.382 245.442C878.68 265.405 888.622 284.969 904.955 298.773C914.303 306.669 925.162 312.532 937.002 316.863C972.056 329.684 1014.04 328.358 1051.37 331.844C1070.16 333.638 1089.37 335.992 1107.38 340.117C1125.37 344.242 1142.53 350.356 1157.3 359.144C1189.42 378.261 1207.14 405.036 1227.76 434.107C1233.3 441.911 1238.92 449.305 1244.8 456.276C1267.64 483.587 1293.42 500.271 1321.95 512.247C1343.96 521.491 1366.14 534.13 1392.92 545.728C1427.42 560.675 1468.43 573.714 1507.81 581.713" stroke="url(#paint20_linear_2_2399)" stroke-width="2" stroke-miterlimit="10"/>
<path d="M797.744 -64.9085C814.03 -69.1689 834.351 -61.5847 842.462 -49.8658C845.414 -45.5597 846.356 -41.0252 847.194 -36.6734C849.141 -26.565 848.251 -14.2521 847.594 -1.25395C846.627 17.7865 848.032 37.4094 865.659 54.5195C875.677 64.251 886.006 73.2515 892.917 85.0618C895.432 89.3793 897.443 94.108 898.72 99.4878C904.935 125.884 889.913 153.045 878.385 175.958C876.89 178.939 875.368 181.943 873.898 184.981C863.428 206.751 854.428 230.532 856.981 255.066C859.044 275.432 869.153 295.5 886.07 309.309C895.754 317.213 907.011 322.913 919.222 327.013C955.274 339.12 998.47 336.733 1036.11 340.468C1055.19 342.399 1074.75 345.094 1092.97 349.789C1111.18 354.494 1128.37 361.382 1142.78 371.239C1174.05 392.621 1188.67 422.158 1208.14 452.666C1213.42 460.936 1218.94 468.611 1224.8 475.693C1247.9 503.734 1276.02 518.514 1307.61 527.628C1331.49 534.527 1355.82 545.218 1383.96 555.555C1420.23 568.862 1461.97 581.586 1501.76 590.895" stroke="url(#paint21_linear_2_2399)" stroke-width="2" stroke-miterlimit="10"/>
<path d="M784.786 -57.83C801.121 -62.6363 822.109 -54.4507 829.368 -41.9612C832.011 -37.3719 832.41 -32.5884 832.655 -28.0219C833.222 -17.633 830.605 -4.90373 828.684 8.3735C825.861 27.8498 826.261 47.76 845.999 64.5306C856.931 73.8235 868.676 82.1346 876.579 93.7222C879.454 97.9577 881.774 102.661 883.283 108.107C890.593 134.775 874.065 162.346 861.547 185.065C859.909 188.033 858.259 191.035 856.648 194.083C845.238 215.832 835.414 239.783 837.683 264.694C839.527 285.471 849.815 306.044 867.322 319.858C877.365 327.769 889.007 333.306 901.628 337.176C938.719 348.57 983.172 345.122 1021.17 349.095C1040.57 351.15 1060.5 354.198 1078.95 359.461C1097.4 364.735 1114.62 372.407 1128.72 383.344C1159.19 406.987 1170.71 439.296 1189.06 471.227C1194.09 479.972 1199.48 487.918 1205.36 495.099C1228.73 523.857 1259.23 536.814 1293.91 543.002C1319.68 547.603 1346.18 556.302 1375.71 565.366C1413.78 577.045 1456.32 589.444 1496.58 600.072" stroke="url(#paint22_linear_2_2399)" stroke-width="2" stroke-miterlimit="10"/>
<path d="M771.83 -51.5159C788.247 -56.8622 809.93 -48.0887 816.319 -34.8143C818.655 -29.9363 818.513 -24.8984 818.164 -20.1118C817.377 -9.40769 812.963 3.71828 809.814 17.3012C805.103 37.2243 804.496 57.4902 826.399 73.9062C838.26 82.7939 851.437 90.4022 860.356 101.78C863.595 105.927 866.228 110.622 867.971 116.14C876.386 143.112 858.329 171.111 844.791 193.674C843.009 196.644 841.215 199.637 839.473 202.698C827.096 224.438 816.448 248.599 818.435 273.926C820.049 295.14 830.529 316.228 848.675 330.074C859.078 338.002 871.12 343.405 884.168 347.027C922.32 357.777 968.112 353.207 1006.51 357.434C1026.26 359.627 1046.58 363.009 1065.29 368.858C1084 374.707 1101.3 383.16 1115.08 395.19C1144.79 421.11 1153.21 456.239 1170.47 489.63C1175.25 498.849 1180.53 507.086 1186.43 514.386C1210.1 543.893 1243.05 555.112 1280.84 558.322C1308.56 560.675 1337.23 567.347 1368.19 575.149C1408.11 585.202 1451.49 597.3 1492.26 609.249" stroke="url(#paint23_linear_2_2399)" stroke-width="2" stroke-miterlimit="10"/>
<path d="M758.872 -44.4379C775.326 -50.3184 797.691 -40.9553 803.215 -26.9106C805.228 -21.7494 804.582 -16.4513 803.615 -11.4728C801.485 -0.454001 795.304 13.054 790.877 26.916C784.321 47.2752 782.656 67.9083 806.712 83.917C819.475 92.4009 834.097 99.2862 843.995 110.442C847.596 114.507 850.538 119.177 852.5 124.761C862.011 152.017 842.434 180.403 827.915 202.783C825.992 205.741 824.069 208.744 822.185 211.792C808.867 233.499 797.394 257.843 799.098 283.546C800.492 305.172 811.138 326.765 829.89 340.615C840.653 348.563 853.093 353.781 866.528 357.184C905.734 367.22 952.773 361.602 991.528 366.056C1011.6 368.385 1032.28 372.107 1051.23 378.525C1070.19 384.953 1087.53 394.179 1100.99 407.276C1129.91 435.446 1135.19 473.355 1151.37 508.17C1155.88 517.864 1161.06 526.371 1166.96 533.781C1190.91 564.006 1226.34 572.33 1267.13 573.689C1296.79 574.682 1327.58 578.428 1359.95 584.959C1401.67 593.386 1445.84 605.158 1487.08 618.426" stroke="url(#paint24_linear_2_2399)" stroke-width="2" stroke-miterlimit="10"/>
<path d="M745.914 -37.3531C762.431 -43.767 785.463 -33.8266 790.121 -19.0129C791.824 -13.569 790.65 -8.01103 789.076 -2.82967C785.618 8.51457 777.656 22.3924 771.966 36.5328C763.566 57.3267 760.831 78.3603 787.05 93.9159C800.715 102.019 816.766 108.159 827.657 119.092C831.618 123.075 834.87 127.72 837.063 133.37C847.67 160.897 826.534 189.657 811.063 211.878C808.999 214.822 806.934 217.824 804.921 220.882C790.65 242.566 778.379 267.081 779.785 293.159C780.947 315.197 791.773 337.28 811.128 351.135C822.237 359.09 835.076 364.146 848.921 367.319C889.167 376.631 937.451 369.966 976.574 374.668C996.974 377.134 1018.02 381.197 1037.19 388.181C1056.39 395.177 1073.83 405.152 1086.92 419.361C1115.12 449.73 1117.18 490.462 1132.29 526.697C1136.54 536.866 1141.61 545.642 1147.52 553.152C1171.75 584.092 1209.62 591.909 1253.44 589.045C1285.1 586.968 1317.94 589.501 1351.71 594.774C1395.23 601.565 1440.2 613.034 1481.89 627.608" stroke="url(#paint25_linear_2_2399)" stroke-width="2" stroke-miterlimit="10"/>
<path d="M732.957 -31.0355C749.523 -37.9906 773.238 -27.4495 777.018 -11.8607C778.412 -6.1276 776.721 -0.291757 774.528 5.08726C769.754 16.7932 759.987 31.0345 753.046 45.4699C742.801 66.7119 739.008 88.2166 767.38 103.303C781.96 111.057 799.429 116.436 811.312 127.16C815.635 131.066 819.196 135.68 821.609 141.413C833.311 169.244 810.68 198.435 794.204 220.499C791.998 223.434 789.804 226.438 787.65 229.51C772.438 251.186 759.342 275.923 760.452 302.407C761.381 324.882 772.386 347.495 792.346 361.37C803.816 369.342 817.041 374.23 831.285 377.188C872.586 385.799 922.117 378.067 961.599 383.012C982.32 385.616 1003.74 390.024 1023.14 397.585C1042.59 405.156 1060.06 415.937 1072.83 431.218C1100.22 463.892 1099.05 507.449 1113.19 545.125C1117.14 555.78 1122.14 564.837 1128.05 572.466C1152.57 604.157 1192.96 610.313 1239.73 604.374C1273.41 600.103 1308.3 600.548 1343.47 604.557C1388.81 609.73 1434.56 620.888 1476.71 636.785" stroke="url(#paint26_linear_2_2399)" stroke-width="2" stroke-miterlimit="10"/>
<path d="M720 -24.7112C736.616 -32.2194 760.998 -21.0771 763.926 -4.70086C764.997 1.33311 762.804 7.43564 759.991 13.0125C744.898 42.8738 696.483 88.1857 747.736 112.699C768.854 122.79 796.293 127.704 806.201 149.462C818.998 177.598 794.861 207.231 777.381 229.127C758.495 252.783 740.228 280.93 741.183 311.637C741.892 334.538 753.077 357.68 773.627 371.588C819.617 402.695 893.059 384.353 946.674 391.347C988.793 396.832 1033.93 410.363 1058.79 443.07C1085.38 478.039 1081.13 524.391 1094.13 563.555C1113.3 621.312 1164.5 630.866 1226.05 619.701C1307.8 604.879 1395.85 615.369 1471.53 645.962" stroke="url(#paint27_linear_2_2399)" stroke-width="2" stroke-miterlimit="10"/>
</g>
</g>
<defs>
<linearGradient id="paint0_linear_2_2399" x1="868.845" y1="-112" x2="1655.89" y2="27.156" gradientUnits="userSpaceOnUse">
<stop stop-color="#EA4726"/>
<stop offset="1" stop-color="#007CA3"/>
</linearGradient>
<linearGradient id="paint1_linear_2_2399" x1="855.652" y1="-105.113" x2="1651.71" y2="36.8118" gradientUnits="userSpaceOnUse">
<stop stop-color="#EA4726"/>
<stop offset="1" stop-color="#007CA3"/>
</linearGradient>
<linearGradient id="paint2_linear_2_2399" x1="842.46" y1="-98.9953" x2="1647.58" y2="45.553" gradientUnits="userSpaceOnUse">
<stop stop-color="#EA4726"/>
<stop offset="1" stop-color="#007CA3"/>
</linearGradient>
<linearGradient id="paint3_linear_2_2399" x1="829.269" y1="-92.1123" x2="1643.39" y2="55.2348" gradientUnits="userSpaceOnUse">
<stop stop-color="#EA4726"/>
<stop offset="1" stop-color="#007CA3"/>
</linearGradient>
<linearGradient id="paint4_linear_2_2399" x1="816.051" y1="-85.2295" x2="1640.14" y2="65.3013" gradientUnits="userSpaceOnUse">
<stop stop-color="#EA4726"/>
<stop offset="1" stop-color="#007CA3"/>
</linearGradient>
<linearGradient id="paint5_linear_2_2399" x1="802.859" y1="-79.1118" x2="1635.99" y2="74.0838" gradientUnits="userSpaceOnUse">
<stop stop-color="#EA4726"/>
<stop offset="1" stop-color="#007CA3"/>
</linearGradient>
<linearGradient id="paint6_linear_2_2399" x1="789.666" y1="-72.9944" x2="1631.83" y2="82.8771" gradientUnits="userSpaceOnUse">
<stop stop-color="#EA4726"/>
<stop offset="1" stop-color="#007CA3"/>
</linearGradient>
<linearGradient id="paint7_linear_2_2399" x1="776.501" y1="-66.1072" x2="1626.65" y2="92.2476" gradientUnits="userSpaceOnUse">
<stop stop-color="#EA4726"/>
<stop offset="1" stop-color="#007CA3"/>
</linearGradient>
<linearGradient id="paint8_linear_2_2399" x1="763.308" y1="-59.2243" x2="1622.41" y2="102.002" gradientUnits="userSpaceOnUse">
<stop stop-color="#EA4726"/>
<stop offset="1" stop-color="#007CA3"/>
</linearGradient>
<linearGradient id="paint9_linear_2_2399" x1="750.091" y1="-53.1067" x2="1619.18" y2="111.21" gradientUnits="userSpaceOnUse">
<stop stop-color="#EA4726"/>
<stop offset="1" stop-color="#007CA3"/>
</linearGradient>
<linearGradient id="paint10_linear_2_2399" x1="736.899" y1="-46.2239" x2="1614.92" y2="120.994" gradientUnits="userSpaceOnUse">
<stop stop-color="#EA4726"/>
<stop offset="1" stop-color="#007CA3"/>
</linearGradient>
<linearGradient id="paint11_linear_2_2399" x1="723.706" y1="-39.3367" x2="1610.65" y2="130.797" gradientUnits="userSpaceOnUse">
<stop stop-color="#EA4726"/>
<stop offset="1" stop-color="#007CA3"/>
</linearGradient>
<linearGradient id="paint12_linear_2_2399" x1="710.514" y1="-33.219" x2="1606.45" y2="139.662" gradientUnits="userSpaceOnUse">
<stop stop-color="#EA4726"/>
<stop offset="1" stop-color="#007CA3"/>
</linearGradient>
<linearGradient id="paint13_linear_2_2399" x1="697.323" y1="-27.1015" x2="1602.24" y2="148.536" gradientUnits="userSpaceOnUse">
<stop stop-color="#EA4726"/>
<stop offset="1" stop-color="#007CA3"/>
</linearGradient>
<linearGradient id="paint14_linear_2_2399" x1="868.845" y1="-112" x2="1655.89" y2="27.156" gradientUnits="userSpaceOnUse">
<stop stop-color="#EA4726"/>
<stop offset="1" stop-color="#007CA3"/>
</linearGradient>
<linearGradient id="paint15_linear_2_2399" x1="855.652" y1="-105.113" x2="1651.71" y2="36.8118" gradientUnits="userSpaceOnUse">
<stop stop-color="#EA4726"/>
<stop offset="1" stop-color="#007CA3"/>
</linearGradient>
<linearGradient id="paint16_linear_2_2399" x1="842.46" y1="-98.9953" x2="1647.58" y2="45.553" gradientUnits="userSpaceOnUse">
<stop stop-color="#EA4726"/>
<stop offset="1" stop-color="#007CA3"/>
</linearGradient>
<linearGradient id="paint17_linear_2_2399" x1="829.269" y1="-92.1123" x2="1643.39" y2="55.2348" gradientUnits="userSpaceOnUse">
<stop stop-color="#EA4726"/>
<stop offset="1" stop-color="#007CA3"/>
</linearGradient>
<linearGradient id="paint18_linear_2_2399" x1="816.051" y1="-85.2295" x2="1640.14" y2="65.3013" gradientUnits="userSpaceOnUse">
<stop stop-color="#EA4726"/>
<stop offset="1" stop-color="#007CA3"/>
</linearGradient>
<linearGradient id="paint19_linear_2_2399" x1="802.859" y1="-79.1118" x2="1635.99" y2="74.0838" gradientUnits="userSpaceOnUse">
<stop stop-color="#EA4726"/>
<stop offset="1" stop-color="#007CA3"/>
</linearGradient>
<linearGradient id="paint20_linear_2_2399" x1="789.666" y1="-72.9944" x2="1631.83" y2="82.8771" gradientUnits="userSpaceOnUse">
<stop stop-color="#EA4726"/>
<stop offset="1" stop-color="#007CA3"/>
</linearGradient>
<linearGradient id="paint21_linear_2_2399" x1="776.501" y1="-66.1072" x2="1626.65" y2="92.2476" gradientUnits="userSpaceOnUse">
<stop stop-color="#EA4726"/>
<stop offset="1" stop-color="#007CA3"/>
</linearGradient>
<linearGradient id="paint22_linear_2_2399" x1="763.308" y1="-59.2243" x2="1622.41" y2="102.002" gradientUnits="userSpaceOnUse">
<stop stop-color="#EA4726"/>
<stop offset="1" stop-color="#007CA3"/>
</linearGradient>
<linearGradient id="paint23_linear_2_2399" x1="750.091" y1="-53.1067" x2="1619.18" y2="111.21" gradientUnits="userSpaceOnUse">
<stop stop-color="#EA4726"/>
<stop offset="1" stop-color="#007CA3"/>
</linearGradient>
<linearGradient id="paint24_linear_2_2399" x1="736.899" y1="-46.2239" x2="1614.92" y2="120.994" gradientUnits="userSpaceOnUse">
<stop stop-color="#EA4726"/>
<stop offset="1" stop-color="#007CA3"/>
</linearGradient>
<linearGradient id="paint25_linear_2_2399" x1="723.706" y1="-39.3367" x2="1610.65" y2="130.797" gradientUnits="userSpaceOnUse">
<stop stop-color="#EA4726"/>
<stop offset="1" stop-color="#007CA3"/>
</linearGradient>
<linearGradient id="paint26_linear_2_2399" x1="710.514" y1="-33.219" x2="1606.45" y2="139.662" gradientUnits="userSpaceOnUse">
<stop stop-color="#EA4726"/>
<stop offset="1" stop-color="#007CA3"/>
</linearGradient>
<linearGradient id="paint27_linear_2_2399" x1="697.323" y1="-27.1015" x2="1602.24" y2="148.536" gradientUnits="userSpaceOnUse">
<stop stop-color="#EA4726"/>
<stop offset="1" stop-color="#007CA3"/>
</linearGradient>
<clipPath id="clip0_2_2399">
<rect width="1440" height="602" fill="white"/>
</clipPath>
</defs>
</svg>
