<svg width="78" height="58" viewBox="0 0 78 58" fill="none" xmlns="http://www.w3.org/2000/svg">
<g clip-path="url(#clip0_2_3022)">
<path d="M60.357 13.591L60.3204 13.5423C60.1314 13.2683 59.7532 13.2074 59.4849 13.3962L54.85 16.6357C54.5756 16.8244 54.5146 17.202 54.7037 17.4699L54.7403 17.5186C54.9293 17.7926 55.3074 17.8535 55.5758 17.6647L60.2106 14.4253C60.479 14.2365 60.5461 13.859 60.357 13.591ZM72.5784 31.8588L70.0658 43.5623C69.4438 46.4729 68.035 48.6955 66.0347 50.2178C64.6503 51.2713 62.9977 51.9715 61.1376 52.3186L62.7842 55.8382C63.1379 56.5993 62.8086 57.5066 62.0463 57.8598C61.284 58.213 60.3753 57.8842 60.0216 57.123L57.8871 52.5683H21.4058L19.2713 57.123C18.9176 57.8842 18.0089 58.213 17.2466 57.8598C16.4843 57.5066 16.155 56.5993 16.5087 55.8382L18.0638 52.5135C15.6854 52.3064 13.7339 51.5453 12.1604 50.2422C10.3248 48.7199 9.06849 46.5095 8.31837 43.6293L5.22643 31.8588H2.81142C2.043 31.8588 1.34167 31.5421 0.829398 31.0367V31.0306L0.823299 31.0367C0.317123 30.5252 0 29.825 0 29.0516V26.5002C0 25.7269 0.317123 25.0266 0.823299 24.5151C0.859891 24.4786 0.90258 24.436 0.94527 24.4055C1.43925 23.961 2.09179 23.6931 2.80532 23.6931H3.17733C3.281 22.5849 3.7079 21.5375 4.36654 20.6241C5.03737 19.6864 5.96435 18.8887 7.01939 18.3407C8.08053 17.7865 9.28194 17.476 10.4955 17.5125C11.5628 17.5491 12.6239 17.8413 13.6058 18.4624C14.0327 17.8413 14.5633 17.2872 15.1731 16.8305C16.3684 15.9354 17.8625 15.3996 19.4787 15.3996C20.8203 15.3996 22.0766 15.7649 23.1439 16.3982C23.9794 16.8914 24.699 17.5551 25.26 18.3346C26.9615 18.4685 28.4984 19.1931 29.651 20.3014C30.5962 21.2148 31.2793 22.3839 31.5781 23.687H72.5906V8.58569C71.7002 4.21971 69.1754 3.03231 65.803 3.51336C67.3215 6.15609 67.1263 8.84144 64.9736 11.5816C65.248 12.0261 65.2236 12.5133 64.9248 13.0308L64.2539 13.8042C63.9856 14.0782 63.6502 14.1025 63.2172 13.7555L52.9107 3.36113C52.6302 3.02622 52.6851 2.73394 53.0144 2.47819C53.7462 1.58307 53.8377 1.43084 55.1367 1.65005C58.0274 -0.225435 60.7778 -0.560343 63.3697 0.925431C69.8768 -1.74166 75.4142 1.60743 76.1643 8.42737V23.8697C76.5486 24.0097 76.8901 24.235 77.1706 24.5151C77.6768 25.0205 77.9939 25.7269 77.9939 26.5002V29.0516C77.9939 29.825 77.6768 30.5252 77.1706 31.0367C76.6644 31.5421 75.957 31.8588 75.1886 31.8588H72.5784ZM54.5207 8.58569L54.4841 8.53698C54.2951 8.26297 53.917 8.20207 53.6486 8.39084L49.0138 11.6303C48.7393 11.8191 48.6783 12.1966 48.8674 12.4645L48.904 12.5133C49.093 12.7873 49.4711 12.8482 49.7395 12.6594L54.3744 9.41992C54.6488 9.23115 54.7098 8.85362 54.5207 8.58569ZM51.8557 5.90643L51.8191 5.85772C51.63 5.5837 51.2519 5.52281 50.9836 5.71157L46.3487 8.95105C46.0743 9.13982 46.0133 9.51735 46.2023 9.78527L46.2389 9.83399C46.428 10.108 46.8061 10.1689 47.0744 9.98013L51.7093 6.74065C51.9776 6.55189 52.0447 6.17436 51.8557 5.90643ZM57.1797 11.1736L57.1431 11.1249C56.954 10.8509 56.5759 10.79 56.3076 10.9788L51.6727 14.2182C51.3983 14.407 51.3373 14.7845 51.5263 15.0525L51.5629 15.1012C51.752 15.3752 52.1301 15.4361 52.3984 15.2473L57.0394 12.0078C57.3016 11.8191 57.3687 11.4476 57.1797 11.1736ZM6.27537 23.6931H28.3825C28.1873 23.2425 27.9007 22.8406 27.547 22.5057C26.8213 21.8054 25.815 21.3731 24.699 21.3731C24.5282 21.3731 24.7112 21.367 24.5953 21.367L24.4916 21.3731C23.9184 21.3975 23.3512 21.0991 23.0707 20.5571C22.7414 19.9299 22.2291 19.4002 21.6009 19.0287C20.9911 18.6695 20.2654 18.4564 19.4909 18.4564C18.5517 18.4564 17.6918 18.7608 17.0149 19.2662C16.3379 19.7777 15.8317 20.4902 15.6122 21.3061C15.539 21.6167 15.3622 21.9089 15.0938 22.1282C14.4413 22.6579 13.4777 22.5605 12.9471 21.9089C12.197 20.9895 11.2944 20.5876 10.4102 20.5571C9.73933 20.5328 9.05629 20.7155 8.44034 21.0382C7.8183 21.367 7.26943 21.842 6.86083 22.4022C6.5742 22.8041 6.36685 23.2425 6.27537 23.6931ZM5.18374 26.7499C4.9398 26.8108 4.69586 26.8047 4.46411 26.7499H3.06145V28.7959H74.9385V26.7499H5.18374ZM8.37936 31.8588L11.2701 42.862C11.8555 45.1029 12.7825 46.7896 14.112 47.8856C15.4109 48.9634 17.1612 49.5115 19.436 49.5115H58.314C60.668 49.5115 62.6744 48.933 64.1747 47.7943C65.6017 46.7104 66.608 45.0846 67.0715 42.929L69.4499 31.8588H8.37936Z" fill="url(#paint0_linear_2_3022)"/>
</g>
<defs>
<linearGradient id="paint0_linear_2_3022" x1="38.9969" y1="-0.00390625" x2="38.9969" y2="58.0017" gradientUnits="userSpaceOnUse">
<stop stop-color="#EA4726"/>
<stop offset="1" stop-color="#C3F500"/>
</linearGradient>
<clipPath id="clip0_2_3022">
<rect width="78" height="58" fill="white"/>
</clipPath>
</defs>
</svg>
