<svg width="56" height="56" viewBox="0 0 56 56" fill="none" xmlns="http://www.w3.org/2000/svg">
<path d="M51.2632 42.77C51.2632 43.61 51.0765 44.4734 50.6798 45.3134C50.2832 46.1534 49.7698 46.9467 49.0932 47.6934C47.9498 48.9534 46.6898 49.8634 45.2665 50.4467C43.8665 51.03 42.3498 51.3334 40.7165 51.3334C38.3365 51.3334 35.7932 50.7734 33.1098 49.63C30.4265 48.4867 27.7432 46.9467 25.0832 45.01C22.3998 43.05 19.8565 40.88 17.4298 38.4767C15.0265 36.05 12.8565 33.5067 10.9198 30.8467C9.0065 28.1867 7.4665 25.5267 6.3465 22.89C5.2265 20.23 4.6665 17.6867 4.6665 15.26C4.6665 13.6734 4.9465 12.1567 5.5065 10.7567C6.0665 9.33335 6.95317 8.02669 8.18984 6.86002C9.68317 5.39002 11.3165 4.66669 13.0432 4.66669C13.6965 4.66669 14.3498 4.80669 14.9332 5.08669C15.5398 5.36669 16.0765 5.78669 16.4965 6.39335L21.9098 14.0234C22.3298 14.6067 22.6332 15.1434 22.8432 15.6567C23.0532 16.1467 23.1698 16.6367 23.1698 17.08C23.1698 17.64 23.0065 18.2 22.6798 18.7367C22.3765 19.2734 21.9332 19.8334 21.3732 20.3934L19.5998 22.2367C19.3432 22.4934 19.2265 22.7967 19.2265 23.17C19.2265 23.3567 19.2498 23.52 19.2965 23.7067C19.3665 23.8934 19.4365 24.0334 19.4832 24.1734C19.9032 24.9434 20.6265 25.9467 21.6532 27.16C22.7032 28.3734 23.8232 29.61 25.0365 30.8467C26.2965 32.0834 27.5098 33.2267 28.7465 34.2767C29.9598 35.3034 30.9632 36.0034 31.7565 36.4234C31.8732 36.47 32.0132 36.54 32.1765 36.61C32.3632 36.68 32.5498 36.7034 32.7598 36.7034C33.1565 36.7034 33.4598 36.5634 33.7165 36.3067L35.4898 34.5567C36.0732 33.9734 36.6332 33.53 37.1698 33.25C37.7065 32.9234 38.2432 32.76 38.8265 32.76C39.2698 32.76 39.7365 32.8534 40.2498 33.0634C40.7632 33.2734 41.2998 33.5767 41.8832 33.9734L49.6065 39.4567C50.2132 39.8767 50.6332 40.3667 50.8898 40.95C51.1232 41.5334 51.2632 42.1167 51.2632 42.77Z" stroke="#C3F500" stroke-width="4" stroke-miterlimit="10"/>
<path d="M43.1667 21C43.1667 19.6 42.07 17.4534 40.4367 15.7034C38.9433 14.0934 36.96 12.8334 35 12.8334" stroke="#C3F500" stroke-width="4" stroke-linecap="round" stroke-linejoin="round"/>
<path d="M51.3333 21C51.3333 11.97 44.03 4.66669 35 4.66669" stroke="#C3F500" stroke-width="4" stroke-linecap="round" stroke-linejoin="round"/>
</svg>
