<svg width="56" height="56" viewBox="0 0 56 56" fill="none" xmlns="http://www.w3.org/2000/svg">
<path d="M51.2634 42.77C51.2634 43.61 51.0767 44.4734 50.6801 45.3134C50.2834 46.1534 49.7701 46.9467 49.0934 47.6934C47.9501 48.9534 46.6901 49.8634 45.2667 50.4467C43.8667 51.03 42.3501 51.3334 40.7167 51.3334C38.3367 51.3334 35.7934 50.7734 33.1101 49.63C30.4267 48.4867 27.7434 46.9467 25.0834 45.01C22.4001 43.05 19.8567 40.88 17.4301 38.4767C15.0267 36.05 12.8567 33.5067 10.9201 30.8467C9.00675 28.1867 7.46675 25.5267 6.34675 22.89C5.22675 20.23 4.66675 17.6867 4.66675 15.26C4.66675 13.6734 4.94675 12.1567 5.50675 10.7567C6.06675 9.33335 6.95341 8.02669 8.19008 6.86002C9.68341 5.39002 11.3167 4.66669 13.0434 4.66669C13.6967 4.66669 14.3501 4.80669 14.9334 5.08669C15.5401 5.36669 16.0767 5.78669 16.4967 6.39335L21.9101 14.0234C22.3301 14.6067 22.6334 15.1434 22.8434 15.6567C23.0534 16.1467 23.1701 16.6367 23.1701 17.08C23.1701 17.64 23.0067 18.2 22.6801 18.7367C22.3767 19.2734 21.9334 19.8334 21.3734 20.3934L19.6001 22.2367C19.3434 22.4934 19.2267 22.7967 19.2267 23.17C19.2267 23.3567 19.2501 23.52 19.2967 23.7067C19.3667 23.8934 19.4367 24.0334 19.4834 24.1734C19.9034 24.9434 20.6267 25.9467 21.6534 27.16C22.7034 28.3734 23.8234 29.61 25.0367 30.8467C26.2967 32.0834 27.5101 33.2267 28.7467 34.2767C29.9601 35.3034 30.9634 36.0034 31.7567 36.4234C31.8734 36.47 32.0134 36.54 32.1767 36.61C32.3634 36.68 32.5501 36.7034 32.7601 36.7034C33.1567 36.7034 33.4601 36.5634 33.7167 36.3067L35.4901 34.5567C36.0734 33.9734 36.6334 33.53 37.1701 33.25C37.7067 32.9234 38.2434 32.76 38.8267 32.76C39.2701 32.76 39.7367 32.8534 40.2501 33.0634C40.7634 33.2734 41.3001 33.5767 41.8834 33.9734L49.6067 39.4567C50.2134 39.8767 50.6334 40.3667 50.8901 40.95C51.1234 41.5334 51.2634 42.1167 51.2634 42.77Z" stroke="#007CA3" stroke-width="4" stroke-miterlimit="10"/>
<path d="M43.1667 21C43.1667 19.6 42.07 17.4534 40.4367 15.7034C38.9433 14.0934 36.96 12.8334 35 12.8334" stroke="#007CA3" stroke-width="4" stroke-linecap="round" stroke-linejoin="round"/>
<path d="M51.3333 21C51.3333 11.97 44.03 4.66669 35 4.66669" stroke="#007CA3" stroke-width="4" stroke-linecap="round" stroke-linejoin="round"/>
</svg>
