<svg width="69" height="59" viewBox="0 0 69 59" fill="none" xmlns="http://www.w3.org/2000/svg">
<g clip-path="url(#clip0_2_2997)">
<path fill-rule="evenodd" clip-rule="evenodd" d="M63.0535 54.9494C63.0535 55.2228 62.9446 55.485 62.7509 55.6783C62.5571 55.8716 62.2943 55.9802 62.0203 55.9802H49.3299C49.2694 54.9505 48.9736 53.9483 48.4651 53.0501H60.1111V29.3067C60.1056 29.2396 60.1056 29.1721 60.1111 29.105L34.6011 10.4095L8.57449 29.133C8.59704 29.219 8.60837 29.3075 8.60818 29.3963V53.0501H19.4568L19.4175 53.1286C18.9419 54.0076 18.6713 54.9824 18.6258 55.9802H6.699C6.56358 55.9802 6.4295 55.9535 6.30446 55.9017C6.17942 55.8498 6.06589 55.7738 5.97039 55.678C5.8749 55.5822 5.79932 55.4685 5.74801 55.3435C5.6967 55.2184 5.67067 55.0845 5.67141 54.9494V30.4552C4.67855 30.8697 3.57096 30.9212 2.54372 30.6009C1.86332 30.3764 1.26393 29.9575 0.819846 29.3963C0.377139 28.836 0.102621 28.1619 0.0280983 27.4523C-0.0268865 26.8002 0.0490863 26.1437 0.251568 25.5213C0.454049 24.8989 0.778969 24.323 1.2073 23.8275C1.25629 23.7664 1.3129 23.7118 1.37575 23.665L33.7195 0.268916C33.8997 0.105271 34.1322 0.0104579 34.3757 0.00123126C34.6192 -0.00799543 34.8582 0.0689578 35.0503 0.218493L67.4558 23.5697C67.501 23.6025 67.5424 23.6401 67.5794 23.6818C68.1412 24.2253 68.5562 24.9016 68.7859 25.648C69.0156 26.3943 69.0526 27.1865 68.8933 27.9509C68.745 28.5883 68.4391 29.1785 68.0037 29.6678C67.5682 30.157 67.017 30.5298 66.4002 30.7522C65.8569 30.9401 65.2813 31.0176 64.7075 30.9801C64.1337 30.9426 63.5732 30.7908 63.0591 30.5337V54.9494H63.0535ZM40.2276 58.3109C42.6253 60.3166 46.1123 57.3304 44.22 54.8205C41.0305 51.2966 38.3745 48.4337 37.1392 47.0611C38.7526 45.1338 40.3661 43.2103 41.9795 41.2905C43.3588 41.9585 44.919 42.1592 46.423 41.8619C47.927 41.5646 49.2927 40.7856 50.3125 39.6433C51.0228 38.8423 51.5395 37.8894 51.8228 36.8579C52.1061 35.8264 52.1484 34.7439 51.9466 33.6935C51.8928 33.3903 51.8197 33.0909 51.7276 32.7971L50.1834 34.0912C48.1956 35.772 46.3875 36.1642 44.7591 35.2678C43.1306 34.3714 43.2897 32.7373 45.2364 30.3656L46.9658 28.2646C46.5988 28.1597 46.2229 28.0884 45.8428 28.0517C40.1265 27.4523 35.5838 34.489 39.2617 39.0999C37.5772 40.7134 35.9656 42.3606 34.354 44.0189C33.4724 43.0721 32.1079 41.5706 25.8806 34.7075L27.7898 33.0268L28.6714 34.0408L31.2937 31.7998L26.9925 26.8024L24.3308 29.0714L25.2967 30.1919L23.3819 31.8727L22.1746 30.4832L19.0188 33.1836L20.2429 34.5899L18.4517 36.1362C18.0338 36.4871 17.6804 36.908 17.4073 37.3799C16.0315 39.9067 18.0642 42.4614 19.8892 44.0301C18.8335 40.8143 20.6192 39.2792 22.7586 37.4247C25.4988 40.7863 28.2559 44.1478 31.0298 47.5093C29.3452 49.2684 26.0884 52.5515 24.2915 54.2323C23.584 54.9158 23.1292 55.5489 23.1685 56.5629C23.1825 56.9048 23.2665 57.2401 23.4152 57.5485C23.5639 57.8568 23.7742 58.1315 24.0332 58.3557C25.482 59.6331 27.0205 58.8599 28.093 57.5826L33.8711 50.9716C35.7298 53.2126 38.3296 56.1483 40.2107 58.3669L40.2276 58.3109Z" fill="url(#paint0_linear_2_2997)"/>
</g>
<defs>
<linearGradient id="paint0_linear_2_2997" x1="34.5006" y1="0.000488281" x2="34.5006" y2="59.0102" gradientUnits="userSpaceOnUse">
<stop stop-color="#EA4726"/>
<stop offset="1" stop-color="#C3F500"/>
</linearGradient>
<clipPath id="clip0_2_2997">
<rect width="69" height="59" fill="white"/>
</clipPath>
</defs>
</svg>
