<svg width="27" height="27" viewBox="0 0 27 27" fill="none" xmlns="http://www.w3.org/2000/svg">
<g clip-path="url(#clip0_2_3096)">
<path d="M13.5015 2.43124C17.1085 2.43124 17.5356 2.44706 18.9542 2.51034C20.2726 2.56835 20.9845 2.78983 21.4591 2.9744C22.0866 3.21698 22.5401 3.51229 23.0095 3.98163C23.4841 4.45624 23.7741 4.90448 24.0167 5.53202C24.2013 6.00663 24.4228 6.72382 24.4808 8.0369C24.544 9.46073 24.5599 9.88788 24.5599 13.4896C24.5599 17.0967 24.544 17.5238 24.4808 18.9424C24.4228 20.2607 24.2013 20.9726 24.0167 21.4473C23.7741 22.0748 23.4788 22.5283 23.0095 22.9976C22.5349 23.4723 22.0866 23.7623 21.4591 24.0049C20.9845 24.1894 20.2673 24.4109 18.9542 24.4689C17.5304 24.5322 17.1032 24.548 13.5015 24.548C9.89443 24.548 9.46729 24.5322 8.04873 24.4689C6.73037 24.4109 6.01846 24.1894 5.54385 24.0049C4.91631 23.7623 4.46279 23.467 3.99346 22.9976C3.51885 22.523 3.22881 22.0748 2.98623 21.4473C2.80166 20.9726 2.58018 20.2555 2.52217 18.9424C2.45889 17.5185 2.44307 17.0914 2.44307 13.4896C2.44307 9.88261 2.45889 9.45546 2.52217 8.0369C2.58018 6.71854 2.80166 6.00663 2.98623 5.53202C3.22881 4.90448 3.52412 4.45096 3.99346 3.98163C4.46807 3.50702 4.91631 3.21698 5.54385 2.9744C6.01846 2.78983 6.73565 2.56835 8.04873 2.51034C9.46729 2.44706 9.89443 2.43124 13.5015 2.43124ZM13.5015 0.000183105C9.83643 0.000183105 9.37764 0.0160034 7.93799 0.0792847C6.50361 0.142566 5.51748 0.374597 4.66318 0.706824C3.77197 1.05487 3.01787 1.51366 2.26904 2.26776C1.51494 3.01659 1.05615 3.77069 0.708106 4.65663C0.375879 5.5162 0.143848 6.49706 0.0805664 7.93143C0.0172852 9.37635 0.00146484 9.83514 0.00146484 13.5002C0.00146484 17.1652 0.0172852 17.624 0.0805664 19.0637C0.143848 20.498 0.375879 21.4842 0.708106 22.3385C1.05615 23.2297 1.51494 23.9838 2.26904 24.7326C3.01787 25.4814 3.77197 25.9455 4.65791 26.2883C5.51748 26.6205 6.49834 26.8525 7.93271 26.9158C9.37236 26.9791 9.83115 26.9949 13.4962 26.9949C17.1612 26.9949 17.62 26.9791 19.0597 26.9158C20.494 26.8525 21.4802 26.6205 22.3345 26.2883C23.2204 25.9455 23.9745 25.4814 24.7233 24.7326C25.4722 23.9838 25.9362 23.2297 26.279 22.3437C26.6112 21.4842 26.8433 20.5033 26.9065 19.0689C26.9698 17.6293 26.9856 17.1705 26.9856 13.5055C26.9856 9.84042 26.9698 9.38163 26.9065 7.94198C26.8433 6.50761 26.6112 5.52147 26.279 4.66718C25.9468 3.77069 25.488 3.01659 24.7339 2.26776C23.9851 1.51893 23.231 1.05487 22.345 0.712097C21.4855 0.379871 20.5046 0.147839 19.0702 0.0845581C17.6253 0.0160034 17.1665 0.000183105 13.5015 0.000183105Z" fill="#C3F500"/>
<path d="M13.5015 6.56561C9.67295 6.56561 6.56689 9.67167 6.56689 13.5002C6.56689 17.3287 9.67295 20.4348 13.5015 20.4348C17.33 20.4348 20.436 17.3287 20.436 13.5002C20.436 9.67167 17.33 6.56561 13.5015 6.56561ZM13.5015 17.9984C11.0177 17.9984 9.00322 15.984 9.00322 13.5002C9.00322 11.0164 11.0177 9.00194 13.5015 9.00194C15.9853 9.00194 17.9997 11.0164 17.9997 13.5002C17.9997 15.984 15.9853 17.9984 13.5015 17.9984Z" fill="#C3F500"/>
<path d="M22.3292 6.29131C22.3292 7.1878 21.6015 7.91026 20.7103 7.91026C19.8138 7.91026 19.0913 7.18252 19.0913 6.29131C19.0913 5.39483 19.819 4.67236 20.7103 4.67236C21.6015 4.67236 22.3292 5.4001 22.3292 6.29131Z" fill="#C3F500"/>
</g>
<defs>
<clipPath id="clip0_2_3096">
<rect width="27" height="27" fill="white"/>
</clipPath>
</defs>
</svg>
