<svg width="27" height="27" viewBox="0 0 27 27" fill="none" xmlns="http://www.w3.org/2000/svg">
<g clip-path="url(#clip0_2_2445)">
<path d="M13.5017 2.43124C17.1087 2.43124 17.5359 2.44706 18.9544 2.51034C20.2728 2.56835 20.9847 2.78983 21.4593 2.9744C22.0869 3.21698 22.5404 3.51229 23.0097 3.98163C23.4843 4.45624 23.7744 4.90448 24.0169 5.53202C24.2015 6.00663 24.423 6.72382 24.481 8.0369C24.5443 9.46073 24.5601 9.88788 24.5601 13.4896C24.5601 17.0967 24.5443 17.5238 24.481 18.9424C24.423 20.2607 24.2015 20.9726 24.0169 21.4473C23.7744 22.0748 23.4791 22.5283 23.0097 22.9976C22.5351 23.4723 22.0869 23.7623 21.4593 24.0049C20.9847 24.1894 20.2675 24.4109 18.9544 24.4689C17.5306 24.5322 17.1035 24.548 13.5017 24.548C9.89468 24.548 9.46753 24.5322 8.04897 24.4689C6.73062 24.4109 6.0187 24.1894 5.54409 24.0049C4.91655 23.7623 4.46304 23.467 3.9937 22.9976C3.51909 22.523 3.22905 22.0748 2.98647 21.4473C2.8019 20.9726 2.58042 20.2555 2.52241 18.9424C2.45913 17.5185 2.44331 17.0914 2.44331 13.4896C2.44331 9.88261 2.45913 9.45546 2.52241 8.0369C2.58042 6.71854 2.8019 6.00663 2.98647 5.53202C3.22905 4.90448 3.52437 4.45096 3.9937 3.98163C4.46831 3.50702 4.91655 3.21698 5.54409 2.9744C6.0187 2.78983 6.73589 2.56835 8.04897 2.51034C9.46753 2.44706 9.89468 2.43124 13.5017 2.43124ZM13.5017 0.000183105C9.83667 0.000183105 9.37788 0.0160034 7.93823 0.0792847C6.50386 0.142566 5.51772 0.374597 4.66343 0.706824C3.77222 1.05487 3.01812 1.51366 2.26929 2.26776C1.51519 3.01659 1.0564 3.77069 0.70835 4.65663C0.376123 5.5162 0.144092 6.49706 0.0808106 7.93143C0.0175293 9.37635 0.00170898 9.83514 0.00170898 13.5002C0.00170898 17.1652 0.0175293 17.624 0.0808106 19.0637C0.144092 20.498 0.376123 21.4842 0.70835 22.3385C1.0564 23.2297 1.51519 23.9838 2.26929 24.7326C3.01812 25.4814 3.77222 25.9455 4.65815 26.2883C5.51772 26.6205 6.49858 26.8525 7.93296 26.9158C9.37261 26.9791 9.8314 26.9949 13.4964 26.9949C17.1615 26.9949 17.6203 26.9791 19.0599 26.9158C20.4943 26.8525 21.4804 26.6205 22.3347 26.2883C23.2207 25.9455 23.9748 25.4814 24.7236 24.7326C25.4724 23.9838 25.9365 23.2297 26.2792 22.3437C26.6115 21.4842 26.8435 20.5033 26.9068 19.0689C26.9701 17.6293 26.9859 17.1705 26.9859 13.5055C26.9859 9.84042 26.9701 9.38163 26.9068 7.94198C26.8435 6.50761 26.6115 5.52147 26.2792 4.66718C25.947 3.77069 25.4882 3.01659 24.7341 2.26776C23.9853 1.51893 23.2312 1.05487 22.3453 0.712097C21.4857 0.379871 20.5048 0.147839 19.0705 0.0845581C17.6255 0.0160034 17.1667 0.000183105 13.5017 0.000183105Z" fill="#007CA3"/>
<path d="M13.5017 6.56561C9.67319 6.56561 6.56714 9.67167 6.56714 13.5002C6.56714 17.3287 9.67319 20.4348 13.5017 20.4348C17.3302 20.4348 20.4363 17.3287 20.4363 13.5002C20.4363 9.67167 17.3302 6.56561 13.5017 6.56561ZM13.5017 17.9984C11.0179 17.9984 9.00347 15.984 9.00347 13.5002C9.00347 11.0164 11.0179 9.00194 13.5017 9.00194C15.9855 9.00194 18 11.0164 18 13.5002C18 15.984 15.9855 17.9984 13.5017 17.9984Z" fill="#007CA3"/>
<path d="M22.3294 6.29131C22.3294 7.1878 21.6017 7.91026 20.7105 7.91026C19.814 7.91026 19.0916 7.18252 19.0916 6.29131C19.0916 5.39483 19.8193 4.67236 20.7105 4.67236C21.6017 4.67236 22.3294 5.4001 22.3294 6.29131Z" fill="#007CA3"/>
</g>
<defs>
<clipPath id="clip0_2_2445">
<rect width="27" height="27" fill="white"/>
</clipPath>
</defs>
</svg>
