<svg width="66" height="55" viewBox="0 0 66 55" fill="none" xmlns="http://www.w3.org/2000/svg">
<g clip-path="url(#clip0_2_2383)">
<path d="M0 0H63.9214C64.1738 0 64.4155 0.0484439 64.6357 0.145332C64.9473 0.279898 65.5327 0.866608 65.6562 1.17342C65.7476 1.39411 65.8013 1.63633 65.8013 1.88931V14.657C65.8013 14.91 65.7529 15.1522 65.6562 15.3783C65.5596 15.6097 65.4199 15.8142 65.248 15.9919L65.2266 16.008C65.0547 16.1749 64.856 16.3095 64.6357 16.401C64.4155 16.4925 64.1738 16.5463 63.9214 16.5463H37.9092C37.8286 16.5463 37.7695 16.4817 37.7695 16.4063V2.22304H17.499V5.93169L24.1001 13.4566C24.2881 13.672 24.374 13.9411 24.3579 14.2102C24.3418 14.474 24.2236 14.7323 24.0088 14.9261L23.998 14.9315C23.9014 15.0122 23.7993 15.0768 23.6865 15.1145C23.5737 15.1576 23.4502 15.1791 23.332 15.1791H3.50195C3.21729 15.1791 2.9541 15.0607 2.77148 14.8723C2.5835 14.6839 2.46533 14.4255 2.46533 14.1402C2.46533 13.9895 2.49756 13.8496 2.55664 13.7204C2.61572 13.5858 2.70166 13.4674 2.80908 13.3705L9.60352 5.92631V2.22304H0V0ZM16.9458 31.5316C17.5581 31.5316 18.0576 32.0322 18.0576 32.6458C18.0576 33.2594 17.5581 33.76 16.9458 33.76C16.3335 33.76 15.834 33.2594 15.834 32.6458C15.834 32.0322 16.3335 31.5316 16.9458 31.5316ZM9.85596 31.5316C10.4683 31.5316 10.9678 32.0322 10.9678 32.6458C10.9678 33.2594 10.4683 33.76 9.85596 33.76C9.24365 33.76 8.74414 33.2594 8.74414 32.6458C8.74414 32.0322 9.24365 31.5316 9.85596 31.5316ZM17.5205 25.5515V26.7303V28.2913H64.1255C65.1567 28.2913 66.0054 29.1417 66.0054 30.1752V53.1161C66.0054 54.1495 65.1621 55 64.1309 55C43.3984 55 22.6768 55 1.93896 55C0.913086 55 0.059082 54.1442 0.059082 53.1161V30.1752C0.059082 29.1363 0.902344 28.2913 1.93896 28.2913H9.28662C9.28662 27.3762 9.28662 26.4665 9.28662 25.5515H11.7305V26.7303H10.6133V28.2913H16.1992V26.7303H15.082V25.5515H17.5205ZM63.9268 30.369H48.0176V52.9223H63.9321V30.369H63.9268ZM45.9443 30.369H25.1206V35.391H45.9443V30.369ZM23.0474 30.369H2.12695V52.9223H23.0474V30.369ZM25.1206 52.9169H45.9443V37.4687H25.1206V52.9169ZM50.4883 31.5316C50.6387 31.5316 50.7837 31.5639 50.9126 31.6177L50.918 31.6231C51.0522 31.6769 51.1704 31.7631 51.2725 31.86C51.3745 31.9622 51.4551 32.086 51.5142 32.2206C51.5679 32.3498 51.6001 32.4951 51.6001 32.6458C51.6001 32.7965 51.5679 32.9365 51.5142 33.0711C51.4551 33.2056 51.3745 33.3294 51.2725 33.4317L51.2617 33.4371C51.1597 33.534 51.0415 33.6147 50.9072 33.6685C50.7783 33.7224 50.6333 33.7547 50.4829 33.7547C50.3325 33.7547 50.1875 33.7224 50.0586 33.6685C49.9297 33.6147 49.8115 33.534 49.7095 33.4371L49.6934 33.4263C49.5913 33.324 49.5107 33.2002 49.457 33.0657L49.4517 33.0603C49.3979 32.9311 49.3711 32.7912 49.3711 32.6404C49.3711 32.4897 49.4033 32.3444 49.457 32.2152C49.5107 32.0806 49.5967 31.9568 49.6987 31.8546C49.8008 31.7523 49.9243 31.6716 50.0586 31.6124L50.064 31.607C50.2036 31.5585 50.3433 31.5316 50.4883 31.5316ZM39.9126 2.22304H39.8428V14.4578H63.7388V2.22304H39.9126ZM41.9536 3.58485C42.0557 3.48796 42.1738 3.40722 42.3081 3.3534C42.437 3.29957 42.582 3.26727 42.7324 3.26727C42.8828 3.26727 43.0278 3.29957 43.1567 3.3534L43.1621 3.35878C43.2964 3.41261 43.4146 3.49873 43.5166 3.59562C43.6187 3.69789 43.6992 3.82169 43.7583 3.95625C43.812 4.08544 43.8442 4.23077 43.8442 4.38148C43.8442 4.5322 43.812 4.67753 43.7583 4.80671L43.7529 4.8121C43.6992 4.94128 43.6187 5.0597 43.522 5.15659L43.5059 5.17273C43.4038 5.26962 43.2856 5.35036 43.1567 5.40419C43.0278 5.45802 42.8828 5.49031 42.7324 5.49031C42.582 5.49031 42.437 5.45802 42.3081 5.40419C42.1738 5.35036 42.0503 5.26424 41.9482 5.16197C41.8462 5.0597 41.7656 4.9359 41.7065 4.80133C41.6528 4.67215 41.6206 4.52682 41.6206 4.3761C41.6206 4.22539 41.6528 4.08544 41.7065 3.95087C41.7656 3.8163 41.8462 3.6925 41.9482 3.59023L41.9536 3.58485Z" fill="url(#paint0_linear_2_2383)"/>
</g>
<defs>
<linearGradient id="paint0_linear_2_2383" x1="33.0027" y1="0" x2="33.0027" y2="55" gradientUnits="userSpaceOnUse">
<stop stop-color="#EA4726"/>
<stop offset="1" stop-color="#007CA3"/>
</linearGradient>
<clipPath id="clip0_2_2383">
<rect width="66" height="55" fill="white"/>
</clipPath>
</defs>
</svg>
