<svg width="80" height="69" viewBox="0 0 80 69" fill="none" xmlns="http://www.w3.org/2000/svg">
<path d="M21.3636 31.8051C22.4483 33.3118 24.0633 35.1242 25.9116 36.9087C27.7598 38.6931 29.6279 40.2436 31.1718 41.2746C33.097 42.5603 34.2204 42.8594 34.8141 42.2445C35.4078 41.6295 35.0694 40.5174 33.7168 38.6385C32.6323 37.1318 31.0171 35.3193 29.1689 33.5349C27.3206 31.7505 25.4526 30.2 23.9087 29.169C21.9835 27.8833 20.8601 27.5841 20.2664 28.1991C19.6727 28.814 20.0111 29.9262 21.3636 31.8051ZM28.2952 34.4398C31.8451 37.8671 33.5161 40.386 33.7955 41.2611C32.9111 41.0126 30.3351 39.4311 26.7852 36.0038C23.2353 32.5764 21.5643 30.0576 21.285 29.1825C22.1693 29.431 24.745 31.0122 28.2952 34.4398Z" fill="url(#paint0_linear_124_599)"/>
<path d="M46.9097 58.3673L40.9798 52.6421L43.2008 50.3417C43.7585 49.764 43.7476 48.8134 43.1673 47.4355C42.6995 46.3245 41.8638 44.93 40.6837 43.2904C38.2915 39.9679 34.7231 35.9638 30.6346 32.0165C26.546 28.0691 22.4191 24.6435 19.0145 22.3694C17.3344 21.2475 15.9114 20.4614 14.7848 20.0328C13.4257 19.5159 12.4906 19.5245 11.9271 20.0566C11.9104 20.0707 11.8944 20.0857 11.8792 20.1014L3.09437 29.2003C3.0792 29.2161 3.06484 29.2326 3.05136 29.2498C2.53926 29.8317 2.56332 30.7664 3.12793 32.1066C3.59577 33.2175 4.43139 34.612 5.61156 36.2516C8.00336 39.5744 11.5722 43.5782 15.6607 47.5255L37.2515 68.3709C37.3715 68.4868 37.5326 68.5502 37.6994 68.5473C37.8662 68.5444 38.0249 68.4753 38.1408 68.3553L46.9254 59.2566C47.0412 59.1366 47.1047 58.9755 47.1017 58.8087C47.0988 58.642 47.0297 58.4832 46.9097 58.3673ZM18.3162 23.4156C21.6604 25.6488 25.7251 29.0243 29.7612 32.9211C33.7973 36.8178 37.3139 40.7612 39.6628 44.0252C42.4129 47.8459 42.4868 49.2704 42.2959 49.4681C42.105 49.6658 40.6787 49.6422 36.7638 47.0278C33.4197 44.7947 29.3549 41.4191 25.3188 37.5224C21.2826 33.6256 17.7661 29.6822 15.4172 26.4182C14.9949 25.8317 14.6364 25.3022 14.3316 24.8243C14.3249 24.8133 14.3181 24.8023 14.3105 24.7915C12.6504 22.1806 12.6232 21.142 12.7841 20.9752C12.975 20.7775 14.4012 20.8013 18.3162 23.4156ZM41.1317 50.6739L40.0752 51.7682L36.6359 48.4476C38.0694 49.3715 39.2986 50.031 40.2954 50.4101C40.5683 50.5155 40.8475 50.6037 41.1314 50.6742L41.1317 50.6739ZM37.6727 67.0293L35.204 64.6459L39.4147 60.2846C39.5306 60.1646 39.594 60.0035 39.5911 59.8367C39.5882 59.67 39.5191 59.5112 39.3991 59.3953C39.2791 59.2795 39.118 59.216 38.9513 59.219C38.7845 59.2219 38.6257 59.291 38.5099 59.411L34.2991 63.7722L16.5344 46.6209C12.4983 42.7241 8.98179 38.7807 6.63283 35.5167C3.88269 31.696 3.80881 30.2715 3.99971 30.0738L11.6196 22.1814C11.7 22.4628 11.7979 22.7389 11.9126 23.0081C12.2244 23.7212 12.5884 24.4104 13.0015 25.07L8.74332 29.4805C8.62576 29.5987 8.55841 29.7578 8.55535 29.9245C8.55228 30.0912 8.61373 30.2526 8.72686 30.3751C8.78564 30.4354 8.85594 30.4833 8.9336 30.516C9.01126 30.5487 9.09468 30.5654 9.17893 30.5652C9.26318 30.565 9.34653 30.5479 9.42403 30.5148C9.50153 30.4818 9.5716 30.4335 9.63009 30.3729L13.7012 26.1562C13.918 26.4777 14.1497 26.81 14.3963 27.153C14.6014 27.4385 14.8155 27.7287 15.0386 28.0237L13.2278 29.8992C13.1102 30.0175 13.0428 30.1766 13.0398 30.3434C13.0368 30.5102 13.0984 30.6717 13.2118 30.7941C13.2705 30.8545 13.3408 30.9024 13.4185 30.9351C13.4962 30.9677 13.5796 30.9845 13.6638 30.9843C13.7481 30.9841 13.8314 30.9669 13.9089 30.9339C13.9864 30.9009 14.0565 30.8526 14.115 30.792L15.8156 29.0305C16.2686 29.6047 16.7483 30.192 17.2546 30.7925L13.2484 34.9419C13.1309 35.0601 13.0635 35.2192 13.0605 35.3859C13.0574 35.5526 13.1189 35.714 13.232 35.8365C13.2908 35.8968 13.3611 35.9448 13.4387 35.9774C13.5164 36.0101 13.5998 36.0268 13.6841 36.0266C13.7683 36.0264 13.8517 36.0093 13.9292 35.9762C14.0067 35.9432 14.0767 35.8949 14.1352 35.8343L18.0768 31.7518C18.5609 32.3082 19.0637 32.8716 19.5852 33.4421L17.5413 35.5591C17.4237 35.6773 17.3563 35.8364 17.3533 36.0031C17.3502 36.1698 17.4117 36.3313 17.5248 36.4537C17.5836 36.5141 17.6539 36.562 17.7316 36.5947C17.8092 36.6273 17.8926 36.6441 17.9769 36.6439C18.0611 36.6437 18.1445 36.6265 18.222 36.5935C18.2995 36.5605 18.3696 36.5122 18.428 36.4516L20.4407 34.3669C20.9478 34.9081 21.469 35.4525 22.0041 36.0002L17.9831 40.1649C17.8655 40.2831 17.7982 40.4422 17.7951 40.6089C17.792 40.7756 17.8535 40.9371 17.9667 41.0595C18.0254 41.1199 18.0957 41.1678 18.1734 41.2005C18.2511 41.2331 18.3345 41.2499 18.4187 41.2497C18.503 41.2495 18.5863 41.2323 18.6638 41.1993C18.7413 41.1663 18.8114 41.118 18.8699 41.0574L22.8881 36.8955C23.3977 37.406 23.917 37.9167 24.4458 38.4273L24.4994 38.4791L22.6974 40.3455C22.5798 40.4637 22.5125 40.6228 22.5094 40.7895C22.5063 40.9562 22.5678 41.1176 22.681 41.2401C22.7397 41.3004 22.81 41.3484 22.8877 41.381C22.9653 41.4137 23.0488 41.4304 23.133 41.4302C23.2173 41.43 23.3006 41.4129 23.3781 41.3799C23.4556 41.3468 23.5257 41.2986 23.5842 41.2379L25.4043 39.3527L27.0295 40.9219L22.7851 45.3182C22.6675 45.4364 22.6001 45.5954 22.597 45.7621C22.594 45.9289 22.6554 46.0903 22.7686 46.2127C22.8274 46.2731 22.8977 46.321 22.9753 46.3537C23.053 46.3864 23.1364 46.4031 23.2207 46.4029C23.3049 46.4027 23.3883 46.3856 23.4658 46.3525C23.5433 46.3195 23.6133 46.2712 23.6718 46.2106L27.9344 41.7955L29.5595 43.3645L27.7575 45.2309C27.6399 45.3491 27.5726 45.5081 27.5695 45.6748C27.5664 45.8415 27.6278 46.0029 27.741 46.1254C27.7997 46.1858 27.87 46.2337 27.9477 46.2664C28.0254 46.2991 28.1088 46.3158 28.1931 46.3156C28.2773 46.3154 28.3607 46.2983 28.4382 46.2653C28.5157 46.2322 28.5858 46.184 28.6443 46.1233L30.4644 44.2381L32.0896 45.8073L27.8452 50.2036C27.7276 50.3218 27.6602 50.4808 27.6571 50.6475C27.6541 50.8142 27.7155 50.9757 27.8287 51.0981C27.8875 51.1585 27.9578 51.2064 28.0354 51.2391C28.1131 51.2718 28.1965 51.2885 28.2808 51.2883C28.365 51.2881 28.4484 51.271 28.5259 51.2379C28.6034 51.2049 28.6734 51.1566 28.7319 51.096L32.9945 46.6809L34.6193 48.2496L32.8174 50.1161C32.6998 50.2343 32.6324 50.3933 32.6294 50.56C32.6263 50.7267 32.6877 50.8881 32.8008 51.0106C32.8596 51.0709 32.9299 51.1189 33.0076 51.1516C33.0852 51.1842 33.1687 51.201 33.2529 51.2008C33.3372 51.2006 33.4205 51.1835 33.498 51.1504C33.5756 51.1174 33.6456 51.0691 33.7041 51.0085L35.5242 49.1233L37.1495 50.6924L32.905 55.0887C32.7874 55.2069 32.7201 55.366 32.717 55.5327C32.7139 55.6994 32.7754 55.8609 32.8886 55.9833C32.9473 56.0437 33.0176 56.0916 33.0953 56.1243C33.173 56.1569 33.2564 56.1737 33.3406 56.1735C33.4249 56.1732 33.5082 56.1561 33.5857 56.1231C33.6632 56.0901 33.7333 56.0418 33.7918 55.9812L38.0544 51.5661L39.6796 53.1352L37.8776 55.0016C37.7601 55.1198 37.6927 55.2789 37.6896 55.4456C37.6866 55.6123 37.748 55.7737 37.8612 55.8962C37.9199 55.9565 37.9902 56.0045 38.0679 56.0371C38.1455 56.0698 38.229 56.0865 38.3132 56.0863C38.3975 56.0861 38.4808 56.069 38.5583 56.036C38.6358 56.0029 38.7059 55.9547 38.7644 55.894L40.5845 54.0088L42.2098 55.5781L40.6209 57.2238C40.505 57.3438 40.4416 57.5049 40.4445 57.6717C40.4474 57.8385 40.5165 57.9972 40.6365 58.1131C40.7565 58.229 40.9176 58.2924 41.0844 58.2895C41.2511 58.2865 41.4099 58.2175 41.5258 58.0975L43.1147 56.4517L45.5837 58.8354L37.6727 67.0293Z" fill="url(#paint1_linear_124_599)"/>
<path d="M58.1631 42.8897C57.9396 42.8897 57.7253 42.8013 57.5672 42.6441C57.4092 42.4868 57.3204 42.2735 57.3204 42.051L57.4215 40.6253L55.9974 40.4995C55.7888 40.4786 55.5955 40.3811 55.4553 40.2261C55.3151 40.071 55.2379 39.8695 55.239 39.6608L55.3401 38.2351L53.916 38.1093C53.7089 38.0865 53.5177 37.9881 53.3792 37.8333C53.2407 37.6784 53.1647 37.4779 53.166 37.2706L53.2587 35.8449L51.8514 35.5933C51.6369 35.57 51.4395 35.4657 51.3 35.3018C51.1604 35.138 51.0894 34.9271 51.1014 34.7127L51.1941 33.2869L49.77 33.1611C49.5539 33.1398 49.3545 33.0364 49.2132 32.8723C49.0719 32.7083 48.9996 32.4963 49.0116 32.2805L49.1127 30.8632L47.6885 30.729C47.48 30.7081 47.2867 30.6106 47.1464 30.4555C47.0062 30.3005 46.9291 30.0989 46.9301 29.8903L47.0228 28.4729L45.5903 28.3388C45.3832 28.316 45.192 28.2176 45.0535 28.0627C44.915 27.9079 44.839 27.7074 44.8403 27.5001L44.9414 26.0827L43.5173 25.9485C43.3087 25.9277 43.1154 25.8302 42.9752 25.6751C42.8349 25.52 42.7578 25.3185 42.7588 25.1099L42.86 23.6925L41.4358 23.4409C41.2198 23.4196 41.0203 23.3162 40.879 23.1521C40.7377 22.9881 40.6655 22.7761 40.6774 22.5603L40.7785 21.1346L39.346 21.0088C39.1314 20.9855 38.9341 20.8812 38.7945 20.7173C38.655 20.5535 38.5839 20.3426 38.596 20.1282L38.6971 18.7024L37.2645 18.5766C37.05 18.5533 36.8526 18.449 36.7131 18.2852C36.5736 18.1213 36.5025 17.9105 36.5146 17.696L36.6157 16.2703L35.1831 16.1445C34.9686 16.1212 34.7712 16.0169 34.6317 15.853C34.4921 15.6892 34.4211 15.4783 34.4331 15.2639L34.5343 13.8465L33.1101 13.7123C32.9015 13.6915 32.7083 13.594 32.568 13.4389C32.4278 13.2838 32.3506 13.0823 32.3517 12.8737L32.4528 11.4479L31.0203 11.3137C30.8132 11.2909 30.622 11.1926 30.4835 11.0377C30.345 10.8828 30.269 10.6824 30.2703 10.4751L30.3714 9.04932L28.9388 8.91513C28.7318 8.89233 28.5405 8.794 28.402 8.63912C28.2635 8.48424 28.1876 8.28379 28.1888 8.07646L28.2563 6.55008L26.8237 6.42428C26.6647 6.4002 26.5159 6.33134 26.395 6.22583C26.274 6.12031 26.1859 5.98255 26.1411 5.82882C26.1015 5.67942 26.1042 5.52204 26.1488 5.37404C26.1934 5.22605 26.2783 5.0932 26.3939 4.99015L29.8321 2.0548L31.9051 0.201336C32.0577 0.0714015 32.252 0 32.4528 0C32.6537 0 32.8479 0.0714015 33.0006 0.201336C34.214 1.15742 61.7614 24.6822 64.4917 27.2904C64.5849 27.3636 64.6616 27.4556 64.7166 27.5603C64.7717 27.6651 64.8038 27.7802 64.811 27.8982C64.8182 28.0161 64.8003 28.1343 64.7584 28.2449C64.7165 28.3555 64.6516 28.456 64.5679 28.5399C64.4842 28.6238 64.3837 28.6891 64.2728 28.7316C64.162 28.7741 64.0434 28.7928 63.9248 28.7865C63.8062 28.7801 63.6903 28.7489 63.5847 28.6949C63.4791 28.6409 63.3861 28.5652 63.3119 28.4729C60.8513 26.0995 36.5146 5.30046 32.5118 1.87868L30.9276 3.31281L30.8517 3.37151L28.9725 4.99015H29.2422C29.4508 5.01101 29.6441 5.1085 29.7843 5.26358C29.9245 5.41865 30.0017 5.62019 30.0006 5.82882L29.9416 7.27972L31.3658 7.40552C31.5743 7.42638 31.7676 7.52387 31.9079 7.67895C32.0481 7.83403 32.1252 8.03556 32.1242 8.24419L32.0231 9.66994L33.4556 9.79574C33.6688 9.83091 33.8603 9.94627 33.9905 10.118C34.1207 10.2897 34.1796 10.5046 34.155 10.7183L34.0539 12.144L35.4781 12.2698C35.6941 12.2911 35.8936 12.3946 36.0349 12.5586C36.1762 12.7227 36.2484 12.9347 36.2365 13.1504L36.1354 14.5762L37.5595 14.702C37.7755 14.7232 37.975 14.8267 38.1163 14.9908C38.2576 15.1548 38.3298 15.3668 38.3179 15.5826L38.2168 16.9999L39.6493 17.1341C39.8639 17.1574 40.0613 17.2617 40.2008 17.4256C40.3403 17.5894 40.4114 17.8003 40.3993 18.0147L40.2982 19.4321L41.7308 19.5663C41.9453 19.5895 42.1427 19.6939 42.2822 19.8577C42.4218 20.0215 42.4928 20.2324 42.4808 20.4469L42.3796 21.8642L43.8122 21.9984C44.0193 22.0212 44.2105 22.1195 44.349 22.2744C44.4875 22.4293 44.5635 22.6297 44.5622 22.8371L44.4695 24.2796L45.8936 24.4054C46.1022 24.4263 46.2955 24.5237 46.4357 24.6788C46.576 24.8339 46.6531 25.0354 46.652 25.2441L46.5509 26.6698L47.9835 26.7956C48.1906 26.8184 48.3818 26.9167 48.5203 27.0716C48.6588 27.2265 48.7347 27.4269 48.7335 27.6343L48.6324 29.06L50.0649 29.1858C50.1791 29.197 50.2898 29.2313 50.3902 29.2865C50.4906 29.3418 50.5786 29.4169 50.6488 29.5072C50.719 29.5975 50.77 29.7011 50.7985 29.8117C50.8271 29.9223 50.8327 30.0375 50.8149 30.1503L50.7138 31.576L52.1126 31.7018C52.2262 31.713 52.3363 31.747 52.4362 31.8018C52.5362 31.8566 52.6239 31.931 52.6941 32.0205C52.8125 32.1835 52.8719 32.3816 52.8626 32.5824L52.7615 33.9662L54.1182 34.092C54.3378 34.1126 54.5405 34.218 54.6828 34.3856L54.7418 34.4611C54.8791 34.6251 54.9485 34.835 54.9356 35.0481L54.8514 36.3984L56.1575 36.5242C56.3771 36.5447 56.5798 36.6501 56.7221 36.8177L56.8232 36.9351C56.9606 37.0991 57.0299 37.3091 57.0171 37.5222L56.9244 38.8305L58.1968 38.9479C58.3062 38.9553 58.4129 38.9852 58.5101 39.0357C58.6073 39.0863 58.6928 39.1563 58.7614 39.2415L58.9131 39.4092C59.0474 39.5745 59.1137 39.7843 59.0985 39.9963L59.0226 41.1369C59.1881 41.2061 59.327 41.3261 59.4191 41.4794C59.5113 41.6327 59.5518 41.8112 59.5349 41.9891C59.518 42.1669 59.4444 42.3347 59.325 42.468C59.2056 42.6014 59.0465 42.6933 58.871 42.7304L58.2642 42.831L58.1631 42.8897Z" fill="url(#paint2_linear_124_599)"/>
<path d="M67.9636 53.6333C67.5722 53.6232 67.1851 53.5495 66.8176 53.4153C63.2699 52.174 58.4666 45.0286 58.3907 44.9111C58.0899 44.4596 57.9368 43.9264 57.9525 43.3848C57.7479 39.2872 58.5703 35.2034 60.3457 31.5008C60.7924 30.5699 61.3317 29.5718 61.6519 28.9848L61.8879 28.5403L61.9637 28.4732C62.2656 27.899 62.7684 27.4547 63.3771 27.2244C63.9858 26.9942 64.6581 26.9939 65.267 27.2236L65.5198 27.341C69.8681 29.6557 75.7584 35.5851 77.6966 37.5308L78.1854 38.0173C78.6755 38.5009 79.0156 39.1146 79.165 39.7853C79.3144 40.4559 79.2669 41.1552 79.0281 41.7997C78.7905 42.2362 78.4109 42.5794 77.9515 42.773C77.4921 42.9665 76.9803 42.9989 76.5 42.8648C76.2754 42.802 76.0404 42.7845 75.8089 42.8133C75.5773 42.8421 75.3539 42.9167 75.1517 43.0325C75.0229 43.1461 74.9367 43.2999 74.9073 43.4686C74.6545 47.8633 72.5984 48.9284 71.3681 49.5742C71.0226 49.7503 70.6686 49.9432 70.6096 50.0858C70.4911 50.4073 70.3899 50.7348 70.3063 51.067C70.0619 51.956 69.7922 52.9708 68.9074 53.4404C68.613 53.5795 68.2892 53.6456 67.9636 53.6333ZM63.4384 29.1861L63.1435 29.748C62.8232 30.335 62.3008 31.3163 61.8626 32.2221C60.2259 35.674 59.4594 39.4709 59.6295 43.2841V43.3932C59.6213 43.6096 59.6801 43.8233 59.798 44.0054C61.2643 46.2195 65.0479 51.0502 67.3822 51.8553C67.6259 51.9715 67.9016 52.004 68.1659 51.9476C68.4102 51.8134 68.5872 51.1089 68.7389 50.6057C68.8271 50.2097 68.9425 49.8202 69.0844 49.44C69.4055 48.8073 69.9524 48.3167 70.6181 48.0646C71.7051 47.5026 73.0703 46.7898 73.2641 43.3428C73.2903 43.0298 73.3781 42.725 73.5227 42.4459C73.6673 42.1667 73.8658 41.9186 74.1068 41.7158C74.4862 41.4452 74.9191 41.2581 75.3768 41.167C75.8345 41.0759 76.3065 41.0829 76.7612 41.1874C77.191 41.2545 77.4522 41.1874 77.5449 41.0197C77.6189 40.6893 77.6083 40.3456 77.5141 40.0203C77.4198 39.695 77.245 39.3984 77.0056 39.1579L76.5 38.6463C74.604 36.7425 68.8569 30.9892 64.7277 28.7583L64.6266 28.708C64.4039 28.6319 64.1611 28.6384 63.9428 28.7262C63.7245 28.814 63.5454 28.9773 63.4384 29.1861ZM65.9159 48.6516C65.2738 48.6118 64.6711 48.3299 64.2305 47.8633C63.3342 47.094 62.6912 46.0741 62.385 44.9363C61.8341 42.4142 62.2872 39.7777 63.6491 37.5812C64.7951 35.6187 66.0929 34.5116 67.5086 34.2852C68.0875 34.2313 68.6713 34.3007 69.2211 34.4888C69.771 34.6768 70.2743 34.9793 70.6976 35.376C71.1209 35.7727 71.4545 36.2545 71.6761 36.7895C71.8978 37.3244 72.0025 37.9002 71.9832 38.4785C71.9313 39.0588 71.7415 39.6185 71.4294 40.1114C71.1173 40.6043 70.6919 41.0163 70.1883 41.3132C68.9411 42.1016 67.913 45.9846 67.8878 46.6556C67.8699 47.0517 67.7435 47.4354 67.5221 47.765C67.3008 48.0947 66.993 48.3578 66.6322 48.5258C66.4048 48.6169 66.1608 48.6597 65.9159 48.6516ZM67.9889 35.8954C67.902 35.8872 67.8145 35.8872 67.7277 35.8954C66.8428 36.038 65.9159 36.9018 65.0395 38.4114C63.8995 40.2247 63.5099 42.4071 63.9524 44.5002V44.5925C64.2024 45.399 64.6825 46.1158 65.3344 46.6556C65.6715 46.9575 65.899 47.0246 65.9665 46.9994C66.028 46.949 66.0785 46.8865 66.1147 46.8158C66.151 46.7451 66.1722 46.6677 66.1771 46.5885C66.1771 45.9259 67.2221 41.1874 69.2529 39.8791C69.5373 39.718 69.779 39.4916 69.9578 39.2189C70.1366 38.9461 70.2474 38.6348 70.281 38.3108C70.2976 37.9775 70.2362 37.645 70.1016 37.3394C69.9671 37.0338 69.7631 36.7634 69.5057 36.5496C69.0981 36.1534 68.5581 35.9205 67.9889 35.8954Z" fill="url(#paint3_linear_124_599)"/>
<defs>
<linearGradient id="paint0_linear_124_599" x1="29.1689" y1="33.5349" x2="25.9116" y2="36.9087" gradientUnits="userSpaceOnUse">
<stop stop-color="#EA4726"/>
<stop offset="1" stop-color="#C3F500"/>
</linearGradient>
<linearGradient id="paint1_linear_124_599" x1="33.8257" y1="35.0974" x2="18.8519" y2="50.6066" gradientUnits="userSpaceOnUse">
<stop stop-color="#EA4726"/>
<stop offset="1" stop-color="#C3F500"/>
</linearGradient>
<linearGradient id="paint2_linear_124_599" x1="45.4629" y1="0" x2="45.4629" y2="42.8897" gradientUnits="userSpaceOnUse">
<stop stop-color="#EA4726"/>
<stop offset="1" stop-color="#C3F500"/>
</linearGradient>
<linearGradient id="paint3_linear_124_599" x1="68.5861" y1="27.0515" x2="68.5861" y2="53.6348" gradientUnits="userSpaceOnUse">
<stop stop-color="#EA4726"/>
<stop offset="1" stop-color="#C3F500"/>
</linearGradient>
</defs>
</svg>
