<svg width="63" height="55" viewBox="0 0 63 55" fill="none" xmlns="http://www.w3.org/2000/svg">
<g clip-path="url(#clip0_2_2377)">
<path d="M57.5826 13.5364L62.8402 18.9618C62.9425 19.0674 63 19.2107 63 19.3601C63 19.5095 62.9425 19.6528 62.8402 19.7584L52.0665 30.876C51.9641 30.9816 51.8253 31.0409 51.6805 31.0409C51.5357 31.0409 51.3968 30.9816 51.2944 30.876L45.8647 25.2731L45.8573 25.2651L45.855 25.2627L45.8497 25.2568L45.8454 25.2519L45.8425 25.2486L45.8363 25.2413L45.8354 25.2402L45.8218 25.2229L45.8188 25.2193L45.8153 25.2142C45.7571 25.1349 45.7205 25.0411 45.7091 24.9423L45.709 24.9422L45.7078 24.9314L45.7061 24.9096L45.7056 24.9017L45.7055 24.8985L45.7051 24.8881V24.8875L45.705 24.8764L45.7049 24.8748L45.7051 24.8654V24.8612L45.7053 24.8543L45.7056 24.8476L45.7058 24.8431L45.7062 24.8341L45.7065 24.8321L45.7074 24.8212V24.8207L45.7086 24.81L45.709 24.8072L45.7098 24.7991L45.7106 24.7938L45.7114 24.7878L45.7126 24.7804L45.7131 24.7769L45.715 24.7671L45.7151 24.7659L45.7173 24.7548L45.7176 24.7539L45.7198 24.7439L45.7205 24.7404L45.7225 24.7328L45.7238 24.7274L45.7253 24.7219L45.7274 24.7143L45.7284 24.711L45.7313 24.7013L45.7317 24.7002L45.7353 24.6893L45.7355 24.6884L45.739 24.6785L45.7401 24.6754L45.743 24.6678L45.7449 24.6626L45.7473 24.6569L45.7501 24.65L45.7518 24.6465C45.7578 24.6322 45.7644 24.6183 45.7717 24.6047C46.244 23.6587 46.3433 22.6951 46.1687 21.8186C46.0046 20.995 45.6014 20.2419 45.0404 19.6462C44.4784 19.0491 43.7596 18.6107 42.9667 18.4173C42.1427 18.2164 41.2331 18.2803 40.3293 18.7064L32.1772 27.1188C32.4831 28.9003 32.0037 30.8628 30.3237 32.5965L10.4739 53.0801C8.42169 55.1977 6.00321 55.3891 3.99718 54.498C3.22653 54.1557 2.52 53.6503 1.9247 53.0328C1.32866 52.4146 0.840531 51.6808 0.506459 50.883C-0.375295 48.7777 -0.206352 46.238 1.81851 44.1485L21.6684 23.6648C23.1156 22.1716 24.7649 21.6166 26.3271 21.7188L35.0955 12.6703C33.9544 11.3977 32.4985 10.6363 30.8279 10.4551C29.0213 10.2591 26.9516 10.7334 24.7394 11.9618C24.6362 12.0194 24.5176 12.0411 24.4015 12.0236C24.2853 12.0062 24.1777 11.9504 24.0947 11.8647L19.9112 7.54885C19.8605 7.49654 19.8203 7.43443 19.7928 7.36607C19.7654 7.29772 19.7513 7.22446 19.7513 7.15047C19.7513 7.07648 19.7654 7.00322 19.7928 6.93486C19.8203 6.86651 19.8605 6.8044 19.9112 6.75208C24.3755 2.14529 29.8662 -0.01202 35.3231 0.000296574C40.9795 0.0129941 46.5949 2.36242 50.9855 6.73469C51.19 6.93963 51.3702 7.15091 51.226 7.48714C50.7165 8.683 50.7747 9.88799 51.2069 10.9024C51.4215 11.4061 51.7309 11.8667 52.1105 12.2584C52.4902 12.6502 52.9364 12.9693 53.4244 13.1907C54.3968 13.632 55.5498 13.6953 56.6956 13.1882C57.093 12.9677 57.3375 13.2834 57.5826 13.5364ZM27.6369 21.9604C27.8587 22.0282 28.0767 22.1085 28.2899 22.201C29.0717 22.5398 29.7876 23.0412 30.388 23.6578C30.9889 24.2747 31.4771 25.0092 31.8033 25.8139L31.8306 25.883L39.6213 17.8436L49.9088 7.22773C45.7742 3.26229 40.5637 1.13571 35.3202 1.12365C30.8086 1.11349 26.2678 2.67313 22.3628 5.97766C25.8839 4.67972 33.2666 3.60805 39.4222 9.79594L36.2574 13.0617C36.2474 13.0741 36.2369 13.0859 36.2259 13.0973L27.6369 21.9604ZM49.2035 22.6244L53.8609 27.4308L61.682 19.3601L57.0245 14.5538L49.2035 22.6244ZM47.3275 22.967L55.3793 14.6581C54.5346 14.7151 53.7194 14.5512 52.9842 14.2175C52.3706 13.9385 51.8125 13.5444 51.3385 13.055C50.8643 12.5658 50.4823 11.9899 50.212 11.3567C49.897 10.6177 49.738 9.80051 49.7812 8.95269L41.7973 17.1915C42.2743 17.1664 42.7523 17.2113 43.217 17.3249C44.2157 17.5686 45.1169 18.1168 45.8185 18.862C46.5209 19.6081 47.0262 20.5539 47.2329 21.5914C47.3216 22.0369 47.3557 22.4982 47.3275 22.967Z" fill="url(#paint0_linear_2_2377)"/>
</g>
<defs>
<linearGradient id="paint0_linear_2_2377" x1="31.5" y1="0.000244141" x2="31.5" y2="55.0002" gradientUnits="userSpaceOnUse">
<stop stop-color="#EA4726"/>
<stop offset="1" stop-color="#007CA3"/>
</linearGradient>
<clipPath id="clip0_2_2377">
<rect width="63" height="55" fill="white"/>
</clipPath>
</defs>
</svg>
