<svg width="28" height="28" viewBox="0 0 28 28" fill="none" xmlns="http://www.w3.org/2000/svg">
<path d="M14.7099 0.5H19.4219C19.876 4.42835 22.1633 6.53795 26.1506 7.03682V11.5503C24.9677 11.5659 23.7899 11.396 22.6627 11.0472C21.5255 10.6886 20.4505 10.1652 19.4741 9.49478V9.78226C19.4741 12.8583 19.4802 15.9335 19.4741 19.0087C19.4671 21.1614 18.6911 23.0368 17.2338 24.6459C15.9027 26.1188 14.2331 27.0489 12.2434 27.3668C9.62641 27.7854 7.23561 27.2231 5.15279 25.6005C3.46296 24.3122 2.33295 22.4537 1.98681 20.3937C1.57616 18.1006 2.10339 15.9826 3.44061 14.0564C4.23911 12.8979 5.32491 11.9535 6.59789 11.3101C7.56204 10.8054 8.62478 10.5038 9.71688 10.4249C10.4207 10.3801 11.1307 10.4164 11.8536 10.4164V15.1269C11.5752 15.0871 11.3003 15.0322 11.0219 15.0102C8.37967 14.8056 6.17767 17.0581 6.68141 19.6716C6.98591 21.2494 7.98643 22.2167 9.53766 22.702C11.6257 23.3531 14.0304 22.0645 14.5837 19.932C14.6757 19.5345 14.7177 19.1277 14.709 18.7204C14.7171 12.7453 14.7189 6.77019 14.7142 0.795091L14.7099 0.5Z" fill="#C3F500"/>
</svg>
